<?xml version="1.0" encoding="utf-8"?>
<!-- Generator: Adobe Illustrator 27.5.0, SVG Export Plug-In . SVG Version: 6.00 Build 0)  -->
<svg version="1.1" xmlns="http://www.w3.org/2000/svg" xmlns:xlink="http://www.w3.org/1999/xlink" x="0px" y="0px"
	 viewBox="0 0 500 500" style="enable-background:new 0 0 500 500;" xml:space="preserve">
<g id="Background_Complete">
	<g>
		<g>
			<g>
				<g>
					<path style="fill:#EBEBEB;" d="M65.892,396.118c4.094-2.112,8.914-2.387,13.459-1.635c2.442,0.404,4.987,1.134,6.648,2.968
						c1.661,1.834,1.976,5.061,0.069,6.637c-1.136,0.938-2.719,1.08-4.192,1.064c-3.558-0.042-7.505-0.668-10.348,1.473
						c-1.621,1.221-2.701,3.251-4.64,3.852c-1.897,0.588-4.037-0.532-5.043-2.244c-1.006-1.712-1.039-3.852-0.57-5.781
						C61.275,402.451,61.769,398.245,65.892,396.118z"/>
				</g>
			</g>
			<g>
				<g>
					<path style="fill:#EBEBEB;" d="M56.514,378.013c2.503,3.575,7.368,2.391,9.624,0.209c2.256-2.182,3.209-5.345,4.077-8.361
						c1.983-6.891,3.982-14.12,2.508-21.138c-0.441-2.098-1.225-4.19-2.7-5.747c-1.474-1.556-3.741-2.482-5.814-1.935
						c-2.453,0.648-3.978,3.051-5.079,5.336c-3.239,6.718-4.954,14.166-4.979,21.624C54.138,371.484,54.549,375.137,56.514,378.013"
						/>
				</g>
			</g>
			<g>
				<g>
					<path style="fill:#EBEBEB;" d="M49.64,383.142c2.718-3.226,3.234-7.93,2.024-11.971c-1.21-4.041-3.942-7.479-7.09-10.285
						c-3.692-3.29-8.032-5.851-12.697-7.491c-1.836-0.646-3.773-1.155-5.71-0.97c-1.937,0.185-3.888,1.175-4.792,2.899
						c-1.336,2.548-0.055,5.64,1.331,8.161c2.441,4.443,5.232,8.693,8.339,12.699c2.5,3.223,5.363,6.401,9.172,7.858
						c3.809,1.456,7.766,1.285,9.786-1.357"/>
				</g>
			</g>
			<g>
				<g>
					<g>
						<path style="fill:#E0E0E0;" d="M56.344,431.943c0.047,0.003,0.123-0.576,0.226-1.624c0.115-1.182,0.26-2.667,0.431-4.434
							c0.207-1.866,0.479-4.086,0.997-6.503c0.517-2.411,1.325-5.025,2.364-7.675c1.075-2.635,2.387-5.029,3.919-6.945
							c1.522-1.924,3.291-3.316,4.955-4.119c1.658-0.819,3.145-1.152,4.173-1.299c1.037-0.106,1.617-0.188,1.618-0.234
							c0.001-0.046-0.581-0.054-1.646-0.025c-1.055,0.07-2.604,0.337-4.351,1.132c-1.753,0.777-3.631,2.191-5.227,4.155
							c-1.609,1.955-2.968,4.403-4.063,7.085c-1.056,2.697-1.853,5.337-2.347,7.801c-0.492,2.46-0.717,4.704-0.865,6.585
							c-0.141,1.883-0.194,3.407-0.22,4.461C56.286,431.356,56.298,431.94,56.344,431.943z"/>
					</g>
				</g>
			</g>
			<g>
				<g>
					<g>
						<path style="fill:#E0E0E0;" d="M56.65,428.532c0.023-0.001,0.038-0.261,0.044-0.754c-0.002-0.566-0.003-1.28-0.006-2.156
							c-0.005-1.871-0.004-4.578,0.096-7.921c0.166-6.686,0.741-13.881,1.853-24.026c1.053-9.539,2.466-20.64,3.958-27.858
							c0.32-1.641,0.642-3.119,0.945-4.412c0.289-1.297,0.536-2.414,0.774-3.318c0.205-0.851,0.371-1.545,0.504-2.095
							c0.108-0.481,0.154-0.737,0.132-0.744c-0.022-0.006-0.112,0.237-0.262,0.707c-0.164,0.543-0.371,1.226-0.626,2.066
							c-0.278,0.896-0.562,2.007-0.887,3.298c-0.339,1.288-0.694,2.762-1.044,4.401c-1.476,6.54-3.038,15.681-4.161,25.849
							c-1.114,10.166-1.616,19.422-1.66,26.124c-0.04,3.351,0.031,6.064,0.117,7.936c0.054,0.875,0.097,1.588,0.132,2.154
							C56.596,428.275,56.627,428.533,56.65,428.532z"/>
					</g>
				</g>
			</g>
			<g>
				<g>
					<g>
						<path style="fill:#E0E0E0;" d="M56.694,410.679c0.047-0.002,0.039-0.802-0.016-2.252c-0.083-1.447-0.282-3.539-0.689-6.1
							c-0.432-2.556-1.036-5.591-1.984-8.889c-0.411-1.508-1.377-5.12-3.717-10.517c-3.083-7.314-7.271-13.293-10.915-16.996
							c-0.855-0.983-1.807-1.692-2.568-2.387c-0.394-0.333-0.742-0.665-1.097-0.928c-0.357-0.246-0.688-0.474-0.996-0.687
							c-1.199-0.82-1.871-1.253-1.896-1.214c-0.108,0.146,2.686,1.79,6.214,5.543c3.513,3.745,7.585,9.683,10.643,16.935
							c1.705,3.933,2.894,7.442,3.738,10.421c0.975,3.266,1.622,6.27,2.111,8.8c0.465,2.536,0.734,4.607,0.896,6.041
							C56.552,409.885,56.648,410.681,56.694,410.679z"/>
					</g>
				</g>
			</g>
		</g>
		<g>
			<g>
				<polygon style="fill:#E0E0E0;" points="39.439,442.171 41.228,466.679 72.712,466.679 74.501,442.171 				"/>
			</g>
		</g>
		<g>
			<g>
				<rect x="36.398" y="432.511" style="fill:#E0E0E0;" width="41.86" height="9.66"/>
			</g>
		</g>
		<g>
			<g>
				<polygon style="fill:#EBEBEB;" points="36.398,465.741 36.398,468.418 38.365,468.418 77.566,468.418 77.566,465.741 				"/>
			</g>
		</g>
		<g>
			<g>
				<polygon style="fill:#E0E0E0;" points="40.293,473.131 38.365,468.418 76.066,468.418 73.817,473.131 				"/>
			</g>
		</g>
		<g>
			<g>
				<g>
					<path style="fill:#F5F5F5;" d="M73.916,450.181c0.007,0.006-0.043,0.082-0.147,0.225c-0.125,0.166-0.28,0.371-0.47,0.624
						c-0.447,0.572-1.061,1.358-1.834,2.347l-0.081,0.104l-0.079-0.109c-1.153-1.594-2.693-3.724-4.506-6.232h0.259
						c-1.34,1.898-2.833,4.012-4.436,6.282l-0.139,0.197l-0.156-0.185c-1.637-1.948-3.415-4.064-5.261-6.26l0.303-0.004
						c-0.091,0.115-0.19,0.239-0.289,0.364c-1.632,2.046-3.211,4.025-4.704,5.898l-0.157,0.197l-0.145-0.205
						c-1.597-2.26-3.089-4.371-4.438-6.28l0.258,0.012c-2.187,2.492-4.042,4.606-5.466,6.228l-0.097,0.111l-0.074-0.125
						c-0.721-1.21-1.295-2.176-1.712-2.875c-0.179-0.312-0.324-0.564-0.439-0.766c-0.097-0.175-0.142-0.268-0.134-0.273
						c0.008-0.005,0.071,0.078,0.183,0.243c0.128,0.194,0.288,0.436,0.486,0.737c0.437,0.687,1.04,1.635,1.797,2.823l-0.171-0.014
						c1.401-1.642,3.226-3.781,5.379-6.304l0.136-0.159l0.123,0.171c1.361,1.9,2.867,4.002,4.478,6.252l-0.301-0.008
						c1.49-1.875,3.065-3.858,4.693-5.907c0.099-0.125,0.198-0.249,0.289-0.364l0.15-0.188l0.154,0.184
						c1.841,2.201,3.614,4.32,5.247,6.272l-0.294,0.012c1.619-2.258,3.127-4.362,4.48-6.25l0.131-0.183l0.128,0.183
						c1.775,2.535,3.282,4.688,4.411,6.3l-0.16-0.005c0.804-0.964,1.443-1.73,1.908-2.287c0.207-0.24,0.375-0.434,0.511-0.591
						C73.845,450.24,73.909,450.175,73.916,450.181z"/>
				</g>
			</g>
		</g>
		<g>
			<g>
				<g>
					<path style="fill:#F5F5F5;" d="M74.939,442.009c0,0.108-7.889,0.196-17.618,0.196c-9.733,0-17.62-0.088-17.62-0.196
						c0-0.108,7.887-0.196,17.62-0.196C67.05,441.813,74.939,441.901,74.939,442.009z"/>
				</g>
			</g>
		</g>
		<g>
			<g>
				<g>
					<path style="fill:#F5F5F5;" d="M76.53,468.682c0,0.108-8.574,0.196-19.147,0.196c-10.578,0-19.149-0.088-19.149-0.196
						c0-0.108,8.572-0.196,19.149-0.196C67.956,468.487,76.53,468.574,76.53,468.682z"/>
				</g>
			</g>
		</g>
	</g>
	<g>
		<g>
			<g>
				<rect x="28.977" y="55.379" style="fill:#F5F5F5;" width="392.795" height="235.082"/>
			</g>
		</g>
	</g>
	<g>
		<g>
			<g>
				<g>
					<g>
						<g>
							<rect x="348.949" y="386.118" style="fill:#F5F5F5;" width="88.442" height="85.566"/>
						</g>
					</g>
				</g>
			</g>
			<g>
				<g>
					<g>
						<g>
							<polygon style="fill:#E0E0E0;" points="355.806,464.361 380.272,420.329 400.283,448.473 412.443,433.527 430.534,464.361 
															"/>
						</g>
					</g>
				</g>
			</g>
			<g>
				<g>
					<g>
						<g>
							<path style="fill:#E0E0E0;" d="M408.808,411.766c0,3.515-2.85,6.365-6.365,6.365s-6.365-2.85-6.365-6.365
								s2.849-6.365,6.365-6.365S408.808,408.25,408.808,411.766z"/>
						</g>
					</g>
				</g>
			</g>
			<g>
				<g>
					<g>
						<g style="opacity:0.3;">
							<g>
								<path style="fill:#E0E0E0;" d="M430.534,464.599c-0.006-0.007-0.013-0.125-0.02-0.351c-0.004-0.257-0.012-0.582-0.02-0.997
									c-0.01-0.911-0.024-2.195-0.042-3.851c-0.022-3.393-0.054-8.301-0.094-14.532c-0.045-12.498-0.109-30.296-0.186-51.664
									l0.362,0.361c-21.643,0.018-47.298,0.038-74.72,0.06c-0.101,0.088,0.791-0.792,0.413-0.409v0.019v0.038v0.077v0.153v0.306
									v0.61v1.219v2.43c0,1.617-0.001,3.227-0.001,4.831c-0.001,3.206-0.001,6.383-0.003,9.527
									c-0.004,6.288-0.007,12.444-0.01,18.438c-0.014,11.983-0.028,23.313-0.04,33.736l-0.367-0.367
									c22.303,0.078,40.933,0.142,54.03,0.187c6.531,0.041,11.68,0.073,15.239,0.096c1.739,0.018,3.088,0.033,4.043,0.043
									c0.438,0.009,0.78,0.015,1.047,0.021C430.403,464.585,430.527,464.592,430.534,464.599c0.008,0.007-0.103,0.014-0.327,0.021
									c-0.258,0.005-0.587,0.012-1.008,0.021c-0.938,0.01-2.263,0.024-3.971,0.043c-3.54,0.023-8.662,0.055-15.156,0.096
									c-13.154,0.045-31.865,0.11-54.266,0.186l-0.367,0.002v-0.369c-0.013-10.422-0.026-21.752-0.04-33.736
									c-0.003-5.993-0.007-12.15-0.011-18.438c-0.001-3.144-0.001-6.321-0.002-9.527c-0.001-1.604-0.001-3.214-0.001-4.831v-2.43
									l-0.001-1.219v-0.61v-0.306v-0.153v-0.077v-0.038v-0.019c-0.375,0.37,0.512-0.528,0.429-0.434
									c27.422,0.022,53.077,0.043,74.72,0.059l0.363,0.001l-0.001,0.361c-0.077,21.464-0.14,39.34-0.185,51.895
									c-0.04,6.196-0.072,11.076-0.094,14.45c-0.018,1.626-0.032,2.888-0.042,3.781c-0.009,0.399-0.015,0.712-0.021,0.959
									C430.548,464.501,430.541,464.606,430.534,464.599z"/>
							</g>
						</g>
					</g>
				</g>
			</g>
		</g>
	</g>
	<g>
		<g>
			<g>
				<rect x="44.769" y="79.559" style="fill:#E0E0E0;" width="397.15" height="225.768"/>
			</g>
		</g>
	</g>
</g>
<g id="Background_Simple" style="display:none;">
	<path style="display:inline;fill:#EBEBEB;" d="M444.213,145.812c0.752,16.866-9.293,32.472-23.62,41.402
		c-14.327,8.93-33.488,9.473-48.299,1.37c-16.678-9.125-27.54-27.88-45.738-33.382c-13.876-4.195-29.037,0.358-43.246-2.518
		c-26.802-5.424-42.079-38.42-33.565-64.406c8.514-25.986,35.364-43.058,62.569-45.818c27.206-2.76,54.383,6.678,78.15,20.202
		c15.3,8.706,29.841,19.374,40.28,33.549C441.183,110.388,447.181,128.46,444.213,145.812"/>
	<path style="display:inline;fill:#EBEBEB;" d="M297.797,295.108c-14.478-10.785-34.42-9.452-52.249-6.618
		c-17.829,2.834-36.82,6.549-53.353-0.702c-13.939-6.115-23.695-19.193-30.072-33.014s-9.987-28.745-15.549-42.914
		c-5.562-14.169-13.542-28.075-26.206-36.52c-12.664-8.446-38.732-17.458-50.498-7.802l0,0
		c-10.031,5.329-20.512,16.668-26.674,26.209c-11.024,17.07-18.435,50.11-19.271,64.272c-2.518,42.639,3.093,88.937,36.115,120.918
		c35.442,34.324,82.432,51.293,121.365,47.967c36.07-3.081,76.386-19.528,103.676-43.314c12.907-11.249,23.93-25.543,27.64-42.257
		C316.431,324.619,311.527,305.336,297.797,295.108z"/>
</g>
<g id="Floor">
	<g>
		<g>
			<path style="fill:#263238;" d="M488.118,472.092c0,0.144-104.379,0.26-233.107,0.26c-128.773,0-233.13-0.117-233.13-0.26
				s104.357-0.26,233.13-0.26C383.739,471.831,488.118,471.948,488.118,472.092z"/>
		</g>
	</g>
</g>
<g id="Plant">
	<g>
		<g>
			<g>
				<g>
					<g>
						<path style="fill:#E8505B;" d="M434.498,388.84c2.889,1.213,5.034,3.843,6.13,6.778c1.096,2.935,1.23,6.153,0.915,9.27
							c-0.61,6.03-3.96,12.15-7.586,17.007c-5.124-4.365-6.383-12.072-6.776-16.021C426.558,399.631,429.226,387.971,434.498,388.84
							"/>
					</g>
					<g>
						<path style="fill:#E8505B;" d="M439.97,431.763c-0.853-3.394,0.519-7.145,3.104-9.504c2.585-2.359,6.223-3.388,9.715-3.163
							c1.615,0.104,3.364,0.554,4.303,1.871c0.879,1.231,0.802,2.966,0.118,4.314c-0.685,1.349-1.885,2.366-3.157,3.185
							C449.692,431.276,444.957,433.195,439.97,431.763"/>
					</g>
					<g>
						<path style="fill:#E8505B;" d="M431.491,435.256c-1.454-7.233-6.634-13.612-13.414-16.522
							c-1.727-0.741-3.96-1.179-5.299,0.138c-1.342,1.319-0.936,3.571-0.181,5.295c3.14,7.173,10.976,12.005,18.795,11.589"/>
					</g>
					<g>
						<g>
							<path style="fill:#263238;" d="M433.048,450.665c-0.027-0.006,0.04-0.453,0.188-1.256c0.148-0.803,0.375-1.962,0.694-3.388
								c0.65-2.836,1.629-6.808,3.712-10.793c2.089-3.986,5.086-6.936,7.62-8.426c1.261-0.759,2.367-1.218,3.151-1.457
								c0.386-0.139,0.703-0.193,0.91-0.249c0.21-0.048,0.322-0.067,0.325-0.054c0.037,0.094-1.785,0.436-4.237,2
								c-2.453,1.526-5.358,4.448-7.416,8.372c-2.055,3.928-3.072,7.858-3.791,10.671c-0.332,1.365-0.608,2.496-0.817,3.355
								C433.194,450.235,433.075,450.671,433.048,450.665z"/>
						</g>
					</g>
					<g>
						<g>
							<path style="fill:#263238;" d="M433.251,397.898c0.014-0.001,0.036,0.185,0.064,0.54c0.027,0.395,0.063,0.91,0.107,1.551
								c0.086,1.348,0.186,3.299,0.291,5.71c0.211,4.824,0.411,11.492,0.468,18.859c0.055,7.369-0.043,14.04-0.18,18.867
								c-0.068,2.413-0.138,4.366-0.204,5.714c-0.034,0.642-0.062,1.157-0.083,1.552c-0.023,0.355-0.042,0.541-0.056,0.54
								c-0.014-0.001-0.022-0.187-0.024-0.543c0.002-0.395,0.005-0.912,0.008-1.554c0.019-1.396,0.045-3.337,0.077-5.715
								c0.064-4.826,0.118-11.493,0.062-18.858c-0.058-7.363-0.213-14.027-0.351-18.852c-0.068-2.378-0.124-4.318-0.164-5.714
								c-0.013-0.643-0.024-1.159-0.032-1.554C433.232,398.086,433.237,397.899,433.251,397.898z"/>
						</g>
					</g>
					<g>
						<g>
							<path style="fill:#263238;" d="M419.208,424.328c0.012-0.025,0.406,0.149,1.113,0.487c0.357,0.163,0.786,0.377,1.256,0.675
								c0.474,0.291,1.036,0.591,1.593,1.019c0.286,0.206,0.585,0.421,0.894,0.643c0.309,0.227,0.601,0.498,0.92,0.761
								c0.649,0.513,1.261,1.15,1.922,1.801c1.268,1.355,2.538,2.966,3.644,4.805c1.082,1.854,1.883,3.743,2.462,5.506
								c0.254,0.893,0.517,1.736,0.656,2.552c0.077,0.405,0.174,0.793,0.225,1.172c0.047,0.378,0.091,0.743,0.134,1.093
								c0.107,0.694,0.1,1.331,0.128,1.887c0.035,0.556,0.017,1.035-0.012,1.426c-0.043,0.782-0.08,1.212-0.108,1.21
								c-0.095-0.002,0.07-1.735-0.289-4.488c-0.051-0.345-0.103-0.704-0.158-1.077c-0.058-0.374-0.162-0.755-0.245-1.153
								c-0.15-0.802-0.423-1.63-0.682-2.508c-0.59-1.733-1.39-3.589-2.456-5.416c-1.09-1.812-2.332-3.405-3.568-4.756
								c-0.645-0.65-1.24-1.286-1.872-1.804c-0.31-0.264-0.594-0.539-0.894-0.769c-0.3-0.227-0.59-0.446-0.868-0.656
								C420.763,425.101,419.165,424.412,419.208,424.328z"/>
						</g>
					</g>
				</g>
				<g>
					<polygon style="fill:#263238;" points="443.427,472.092 425.063,472.092 421.305,445.174 446.931,445.174 					"/>
				</g>
			</g>
		</g>
		<g>
			<g>
				<path style="fill:#FAFAFA;" d="M445.28,457.58c0,0.144-4.962,0.26-11.082,0.26c-6.122,0-11.083-0.117-11.083-0.26
					s4.961-0.26,11.083-0.26C440.318,457.319,445.28,457.436,445.28,457.58z"/>
			</g>
		</g>
		<g>
			<g>
				<path style="fill:#FAFAFA;" d="M445.28,459.176c0,0.144-4.962,0.26-11.082,0.26c-6.122,0-11.083-0.117-11.083-0.26
					c0-0.144,4.961-0.26,11.083-0.26C440.318,458.915,445.28,459.032,445.28,459.176z"/>
			</g>
		</g>
	</g>
</g>
<g id="Files">
	<g>
		<g>
			<g>
				<path style="fill:#263238;" d="M388.585,472.029l-140.079,0.063c-1.18,0-2.136-0.955-2.137-2.135l-0.038-84.602
					c-0.001-1.18,0.955-2.136,2.135-2.137l140.079-0.063c1.18-0.001,2.136,0.955,2.137,2.135l0.038,84.603
					C390.721,471.072,389.765,472.028,388.585,472.029z"/>
				<g>
					<polygon style="fill:#FFFFFF;" points="320.029,418.675 331.878,425.045 320.506,432.542 309.134,440.039 308.657,426.172 
						308.18,412.304 					"/>
				</g>
			</g>
			<g>
				<g>
					<g>
						<path style="fill:#FFFFFF;" d="M380.292,463.155c0,0.144-27.649,0.273-61.747,0.288c-34.11,0.015-61.753-0.089-61.753-0.233
							c0-0.144,27.643-0.273,61.753-0.288C352.643,462.907,380.292,463.011,380.292,463.155z"/>
					</g>
				</g>
				<g>
					<path style="fill:#FFFFFF;" d="M258.945,463.209c0,0.86-0.696,1.557-1.556,1.557s-1.557-0.696-1.557-1.556
						c0-0.86,0.696-1.557,1.556-1.557C258.248,461.653,258.945,462.349,258.945,463.209z"/>
				</g>
			</g>
		</g>
	</g>
	<g>
		<g>
			<g>
				<path style="fill:#455A64;" d="M366.705,471.782l-148.766,0.067c-1.18,0.001-2.136-0.955-2.137-2.135l-0.04-89.951
					c-0.001-1.18,0.955-2.136,2.135-2.137l148.766-0.067c1.18-0.001,2.136,0.955,2.137,2.135l0.04,89.951
					C368.84,470.825,367.884,471.782,366.705,471.782z"/>
				<g>
					<polygon style="fill:#FFFFFF;" points="293.894,415.217 306.457,421.971 294.4,429.919 282.344,437.867 281.838,423.165 
						281.332,408.464 					"/>
				</g>
			</g>
			<g>
				<g>
					<g>
						<path style="fill:#FFFFFF;" d="M357.784,462.374c0,0.144-29.312,0.273-65.463,0.29c-36.163,0.016-65.47-0.087-65.47-0.231
							c0-0.144,29.306-0.273,65.469-0.29C328.471,462.127,357.784,462.23,357.784,462.374z"/>
					</g>
				</g>
				<g>
					<path style="fill:#FFFFFF;" d="M229.135,462.432c0,0.911-0.738,1.651-1.65,1.651c-0.911,0-1.651-0.738-1.651-1.65
						c0-0.911,0.738-1.651,1.649-1.651C228.395,460.782,229.134,461.52,229.135,462.432z"/>
				</g>
			</g>
		</g>
	</g>
	<g>
		<g>
			<g>
				<path style="fill:#E8505B;" d="M309.646,472.054l-83.536,0.037c-1.18,0-2.136-0.955-2.137-2.135l-0.022-49.79
					c0-1.18,0.955-2.136,2.135-2.137l83.536-0.037c1.18-0.001,2.136,0.955,2.137,2.135l0.022,49.79
					C311.782,471.097,310.826,472.054,309.646,472.054z"/>
				<g>
					<polygon style="fill:#FFFFFF;" points="268.781,439.599 275.989,443.474 269.071,448.034 262.154,452.595 261.863,444.159 
						261.573,435.724 					"/>
				</g>
			</g>
			<g>
				<g>
					<g>
						<path style="fill:#FFFFFF;" d="M305.438,466.656c0,0.144-16.818,0.268-37.56,0.277c-20.749,0.009-37.564-0.1-37.564-0.244
							c0-0.144,16.815-0.268,37.564-0.277C288.62,466.403,305.438,466.512,305.438,466.656z"/>
					</g>
				</g>
				<g>
					<path style="fill:#FFFFFF;" d="M231.624,466.689c0,0.523-0.423,0.947-0.946,0.947c-0.523,0-0.947-0.423-0.947-0.946
						c0-0.523,0.423-0.947,0.946-0.947C231.2,465.742,231.624,466.166,231.624,466.689z"/>
				</g>
			</g>
		</g>
	</g>
</g>
<g id="Screen">
	<g>
		<g>
			<g>
				<g>
					<g>
						<g>
							<rect x="59.994" y="104.366" style="fill:#FFFFFF;" width="393.228" height="250.5"/>
						</g>
					</g>
				</g>
				<g>
					<g>
						<g>
							<g>
								<path style="fill:#263238;" d="M453.494,353.913c-0.002-1.936-0.084-96.777-0.218-250.5l0.218,0.24
									c-105.485,0.019-243.127,0.044-393.198,0.071h-0.03l0.283-0.312c-0.007,88.658-0.014,173.368-0.02,250.5l-0.263-0.29
									C290.764,353.793,451.101,353.911,453.494,353.913c-2.392,0.002-162.729,0.12-393.228,0.29l-0.264,0v-0.29
									c-0.006-77.132-0.013-161.841-0.02-250.5v-0.312h0.283h0.03c150.071,0.027,287.713,0.052,393.198,0.071h0.219l0,0.241
									C453.578,257.136,453.496,351.979,453.494,353.913z"/>
							</g>
						</g>
					</g>
				</g>
			</g>
			<g>
				<g>
					<g>
						<g>
							<path style="fill:#263238;" d="M453.72,118.427c0,0.156-88.135,0.283-196.831,0.283c-108.733,0-196.85-0.127-196.85-0.283
								s88.117-0.283,196.85-0.283C365.585,118.144,453.72,118.271,453.72,118.427z"/>
						</g>
					</g>
				</g>
			</g>
			<g>
				<g>
					<g>
						<path style="fill:#263238;" d="M73.04,109.147c0,1.403-1.138,2.541-2.541,2.541c-1.403,0-2.541-1.138-2.541-2.541
							c0-1.403,1.138-2.541,2.541-2.541C71.903,106.606,73.04,107.743,73.04,109.147z"/>
					</g>
				</g>
			</g>
			<g>
				<g>
					<g>
						<path style="fill:#263238;" d="M80.791,109.147c0,1.403-1.138,2.541-2.541,2.541c-1.403,0-2.541-1.138-2.541-2.541
							c0-1.403,1.138-2.541,2.541-2.541C79.653,106.606,80.791,107.743,80.791,109.147z"/>
					</g>
				</g>
			</g>
			<g>
				<g>
					<g>
						<path style="fill:#263238;" d="M88.542,109.147c0,1.403-1.138,2.541-2.541,2.541c-1.403,0-2.541-1.138-2.541-2.541
							c0-1.403,1.138-2.541,2.541-2.541C87.404,106.606,88.542,107.743,88.542,109.147z"/>
					</g>
				</g>
			</g>
			<g>
				<g>
					<g>
						<g>
							<path style="fill:none;stroke:#4E585D;stroke-width:0.05;stroke-miterlimit:10;" d="M158.313,176.167"/>
						</g>
					</g>
				</g>
			</g>
		</g>
		<g>
			<g>
				<g>
					<g>
						<g>
							<g>
								<g>
									<g>
										<rect x="86.37" y="253.405" style="fill:#E8505B;" width="81.093" height="78.456"/>
									</g>
								</g>
							</g>
						</g>
					</g>
					<g style="opacity:0.3;">
						<g>
							<g>
								<g>
									<g>
										<polygon points="92.658,325.146 115.091,284.773 133.439,310.578 144.589,296.874 161.176,325.146 										"/>
									</g>
								</g>
							</g>
						</g>
					</g>
					<g style="opacity:0.3;">
						<g>
							<g>
								<g>
									<g>
										<path d="M141.255,276.921c0,3.223-2.613,5.836-5.836,5.836c-3.223,0-5.836-2.613-5.836-5.836
											c0-3.223,2.613-5.836,5.836-5.836C138.643,271.085,141.255,273.698,141.255,276.921z"/>
									</g>
								</g>
							</g>
						</g>
					</g>
					<g>
						<g>
							<g>
								<g style="opacity:0.3;">
									<g>
										<g>
											<path d="M161.176,325.364c-0.006-0.006-0.012-0.115-0.019-0.322c-0.004-0.235-0.011-0.534-0.018-0.915
												c-0.009-0.835-0.022-2.013-0.039-3.531c-0.02-3.111-0.049-7.611-0.086-13.324c-0.041-11.459-0.1-27.778-0.17-47.371
												l0.332,0.331c-19.844,0.016-43.368,0.035-68.511,0.055c-0.093,0.081,0.725-0.727,0.379-0.375v0.017v0.035v0.07v0.14v0.28
												v0.559v1.118v2.228c0,1.483-0.001,2.959-0.001,4.429c-0.001,2.94-0.001,5.853-0.003,8.735
												c-0.003,5.766-0.006,11.411-0.01,16.906c-0.013,10.987-0.025,21.376-0.037,30.932l-0.337-0.336
												c20.45,0.071,37.532,0.13,49.54,0.172c5.988,0.038,10.71,0.067,13.973,0.088c1.595,0.017,2.832,0.03,3.707,0.039
												c0.401,0.008,0.715,0.014,0.96,0.019C161.056,325.351,161.17,325.357,161.176,325.364
												c0.007,0.006-0.094,0.013-0.299,0.019c-0.237,0.005-0.538,0.011-0.924,0.019c-0.86,0.009-2.075,0.022-3.641,0.039
												c-3.246,0.021-7.942,0.05-13.897,0.088c-12.061,0.042-29.217,0.101-49.756,0.171l-0.336,0.002v-0.339
												c-0.011-9.556-0.024-19.945-0.037-30.932c-0.003-5.495-0.007-11.14-0.01-16.906c-0.001-2.883-0.001-5.796-0.002-8.735
												c-0.001-1.47-0.001-2.947-0.001-4.429v-2.228l-0.001-1.118v-0.559v-0.28v-0.14v-0.07v-0.035v-0.017
												c-0.344,0.339,0.469-0.484,0.394-0.397c25.143,0.02,48.667,0.039,68.511,0.054l0.333,0.001l-0.001,0.331
												c-0.07,19.68-0.129,36.071-0.17,47.582c-0.037,5.681-0.066,10.156-0.086,13.249c-0.017,1.491-0.029,2.648-0.038,3.467
												c-0.008,0.366-0.014,0.653-0.019,0.879C161.189,325.274,161.183,325.37,161.176,325.364z"/>
										</g>
									</g>
								</g>
							</g>
						</g>
					</g>
				</g>
			</g>
			<g>
				<g>
					<g>
						<g>
							<rect x="178.707" y="268.328" style="fill:#E8505B;" width="54.892" height="2.758"/>
						</g>
					</g>
				</g>
				<g>
					<g>
						<g>
							<g>
								<path style="fill:#263238;" d="M252.677,280.173c0,0.156-16.485,0.283-36.816,0.283c-20.338,0-36.82-0.127-36.82-0.283
									c0-0.156,16.482-0.283,36.82-0.283C236.192,279.89,252.677,280.017,252.677,280.173z"/>
							</g>
						</g>
					</g>
				</g>
				<g>
					<g>
						<g>
							<g>
								<path style="fill:#263238;" d="M252.677,287.872c0,0.156-16.485,0.283-36.816,0.283c-20.338,0-36.82-0.127-36.82-0.283
									c0-0.156,16.482-0.283,36.82-0.283C236.192,287.589,252.677,287.716,252.677,287.872z"/>
							</g>
						</g>
					</g>
				</g>
				<g>
					<g>
						<g>
							<g>
								<path style="fill:#263238;" d="M252.677,295.57c0,0.156-16.485,0.283-36.816,0.283c-20.338,0-36.82-0.127-36.82-0.283
									c0-0.156,16.482-0.283,36.82-0.283C236.192,295.287,252.677,295.414,252.677,295.57z"/>
							</g>
						</g>
					</g>
				</g>
				<g>
					<g>
						<g>
							<g>
								<path style="fill:#263238;" d="M252.677,303.268c0,0.156-16.485,0.283-36.816,0.283c-20.338,0-36.82-0.127-36.82-0.283
									c0-0.156,16.482-0.283,36.82-0.283C236.192,302.985,252.677,303.112,252.677,303.268z"/>
							</g>
						</g>
					</g>
				</g>
				<g>
					<g>
						<g>
							<g>
								<path style="fill:#263238;" d="M252.677,310.967c0,0.156-16.485,0.283-36.816,0.283c-20.338,0-36.82-0.127-36.82-0.283
									c0-0.156,16.482-0.283,36.82-0.283C236.192,310.684,252.677,310.81,252.677,310.967z"/>
							</g>
						</g>
					</g>
				</g>
				<g>
					<g>
						<g>
							<g>
								<path style="fill:#263238;" d="M216.855,318.038c0,0.156-8.466,0.283-18.906,0.283c-10.444,0-18.908-0.127-18.908-0.283
									c0-0.156,8.464-0.283,18.908-0.283C208.39,317.755,216.855,317.882,216.855,318.038z"/>
							</g>
						</g>
					</g>
				</g>
			</g>
		</g>
		<g>
			<g>
				<g>
					<g>
						<rect x="356.017" y="263.685" style="fill:#E8505B;" width="54.892" height="2.758"/>
					</g>
				</g>
			</g>
			<g>
				<g>
					<g>
						<g>
							<path style="fill:#263238;" d="M429.988,275.531c0,0.156-16.485,0.283-36.816,0.283c-20.338,0-36.82-0.127-36.82-0.283
								c0-0.156,16.482-0.283,36.82-0.283C413.503,275.248,429.988,275.374,429.988,275.531z"/>
						</g>
					</g>
				</g>
			</g>
			<g>
				<g>
					<g>
						<g>
							<path style="fill:#263238;" d="M429.988,283.229c0,0.156-16.485,0.283-36.816,0.283c-20.338,0-36.82-0.127-36.82-0.283
								c0-0.156,16.482-0.283,36.82-0.283C413.503,282.946,429.988,283.073,429.988,283.229z"/>
						</g>
					</g>
				</g>
			</g>
			<g>
				<g>
					<g>
						<g>
							<path style="fill:#263238;" d="M429.988,290.927c0,0.156-16.485,0.283-36.816,0.283c-20.338,0-36.82-0.127-36.82-0.283
								c0-0.156,16.482-0.283,36.82-0.283C413.503,290.644,429.988,290.771,429.988,290.927z"/>
						</g>
					</g>
				</g>
			</g>
			<g>
				<g>
					<g>
						<g>
							<path style="fill:#263238;" d="M429.988,298.626c0,0.156-16.485,0.283-36.816,0.283c-20.338,0-36.82-0.127-36.82-0.283
								c0-0.156,16.482-0.283,36.82-0.283C413.503,298.342,429.988,298.469,429.988,298.626z"/>
						</g>
					</g>
				</g>
			</g>
			<g>
				<g>
					<g>
						<g>
							<path style="fill:#263238;" d="M429.988,306.324c0,0.156-16.485,0.283-36.816,0.283c-20.338,0-36.82-0.127-36.82-0.283
								c0-0.156,16.482-0.283,36.82-0.283C413.503,306.041,429.988,306.168,429.988,306.324z"/>
						</g>
					</g>
				</g>
			</g>
			<g>
				<g>
					<g>
						<g>
							<path style="fill:#263238;" d="M394.166,313.395c0,0.157-8.466,0.283-18.906,0.283c-10.444,0-18.908-0.127-18.908-0.283
								c0-0.156,8.464-0.283,18.908-0.283C385.7,313.112,394.166,313.239,394.166,313.395z"/>
						</g>
					</g>
				</g>
			</g>
		</g>
		<g>
			<g>
				<g>
					<g>
						<g>
							<path style="fill:#263238;" d="M344.677,334.515c0-0.157,1.217-0.283,2.719-0.283c-0.566,0.566-0.157,0.156-0.283,0.282
								v-0.001v-0.002v-0.005v-0.009v-0.018l0-0.035l0-0.07l0.001-0.138l0.004-0.27c0.005-0.162,0.011-0.328,0.016-0.51
								c0.014-0.325,0.035-0.618,0.061-0.864c0.051-0.492,0.122-0.796,0.2-0.796c0.078,0,0.149,0.304,0.2,0.796
								c0.026,0.246,0.046,0.539,0.061,0.864c0.006,0.182,0.011,0.349,0.016,0.51l0.004,0.27l0.001,0.138l0,0.07l0,0.035v0.018
								v0.009v0.005v0.002v0.001c-0.126,0.127,0.283-0.282-0.283,0.284C345.895,334.798,344.677,334.671,344.677,334.515z"/>
						</g>
					</g>
				</g>
			</g>
			<g>
				<g>
					<g>
						<g>
							<path style="fill:#263238;" d="M333.038,334.515c0-0.157,1.303-0.283,2.91-0.283c1.607,0,2.91,0.127,2.91,0.283
								c0,0.156-1.303,0.283-2.91,0.283C334.341,334.798,333.038,334.671,333.038,334.515z"/>
						</g>
					</g>
				</g>
			</g>
			<g>
				<g>
					<g>
						<g>
							<path style="fill:#263238;" d="M321.399,334.515c0-0.157,1.303-0.283,2.91-0.283c1.607,0,2.91,0.127,2.91,0.283
								c0,0.156-1.303,0.283-2.91,0.283C322.702,334.798,321.399,334.671,321.399,334.515z"/>
						</g>
					</g>
				</g>
			</g>
			<g>
				<g>
					<g>
						<g>
							<path style="fill:#263238;" d="M309.76,334.515c0-0.157,1.303-0.283,2.91-0.283c1.607,0,2.91,0.127,2.91,0.283
								c0,0.156-1.302,0.283-2.91,0.283C311.062,334.798,309.76,334.671,309.76,334.515z"/>
						</g>
					</g>
				</g>
			</g>
			<g>
				<g>
					<g>
						<g>
							<path style="fill:#263238;" d="M298.12,334.515c0-0.157,1.303-0.283,2.91-0.283c1.607,0,2.91,0.127,2.91,0.283
								c0,0.156-1.303,0.283-2.91,0.283C299.423,334.798,298.12,334.671,298.12,334.515z"/>
						</g>
					</g>
				</g>
			</g>
			<g>
				<g>
					<g>
						<g>
							<path style="fill:#263238;" d="M286.481,334.515c0-0.157,1.303-0.283,2.91-0.283c1.607,0,2.91,0.127,2.91,0.283
								c0,0.156-1.303,0.283-2.91,0.283C287.784,334.798,286.481,334.671,286.481,334.515z"/>
						</g>
					</g>
				</g>
			</g>
			<g>
				<g>
					<g>
						<g>
							<path style="fill:#263238;" d="M274.842,334.515c0-0.157,1.303-0.283,2.91-0.283c1.607,0,2.91,0.127,2.91,0.283
								c0,0.156-1.302,0.283-2.91,0.283C276.145,334.798,274.842,334.671,274.842,334.515z"/>
						</g>
					</g>
				</g>
			</g>
			<g>
				<g>
					<g>
						<g>
							<path style="fill:#263238;" d="M266.303,331.796c0.156,0,0.283,1.217,0.283,2.719c-0.566-0.566-0.156-0.157-0.282-0.283
								h0.001h0.002h0.004h0.009h0.018l0.035,0l0.07,0l0.138,0.001l0.27,0.004c0.162,0.005,0.328,0.01,0.51,0.017
								c0.325,0.014,0.618,0.035,0.864,0.061c0.492,0.051,0.796,0.122,0.796,0.2c0,0.078-0.304,0.149-0.796,0.2
								c-0.246,0.026-0.539,0.046-0.864,0.061c-0.182,0.006-0.349,0.011-0.51,0.017l-0.27,0.004l-0.138,0.001l-0.07,0l-0.035,0
								h-0.018h-0.009h-0.004h-0.002h-0.001c-0.127-0.126,0.282,0.283-0.284-0.283C266.02,333.013,266.147,331.796,266.303,331.796z
								"/>
						</g>
					</g>
				</g>
			</g>
			<g>
				<g>
					<g>
						<g>
							<path style="fill:#263238;" d="M266.303,320.563c0.156,0,0.283,1.257,0.283,2.808c0,1.551-0.127,2.809-0.283,2.809
								s-0.283-1.257-0.283-2.809C266.02,321.82,266.147,320.563,266.303,320.563z"/>
						</g>
					</g>
				</g>
			</g>
			<g>
				<g>
					<g>
						<g>
							<path style="fill:#263238;" d="M266.303,309.329c0.156,0,0.283,1.257,0.283,2.808c0,1.551-0.127,2.809-0.283,2.809
								s-0.283-1.257-0.283-2.809C266.02,310.586,266.147,309.329,266.303,309.329z"/>
						</g>
					</g>
				</g>
			</g>
			<g>
				<g>
					<g>
						<g>
							<path style="fill:#263238;" d="M266.303,298.095c0.156,0,0.283,1.258,0.283,2.808c0,1.551-0.127,2.809-0.283,2.809
								s-0.283-1.257-0.283-2.809C266.02,299.353,266.147,298.095,266.303,298.095z"/>
						</g>
					</g>
				</g>
			</g>
			<g>
				<g>
					<g>
						<g>
							<path style="fill:#263238;" d="M266.303,286.862c0.156,0,0.283,1.257,0.283,2.808c0,1.551-0.127,2.809-0.283,2.809
								s-0.283-1.257-0.283-2.809C266.02,288.119,266.147,286.862,266.303,286.862z"/>
						</g>
					</g>
				</g>
			</g>
			<g>
				<g>
					<g>
						<g>
							<path style="fill:#263238;" d="M266.303,275.628c0.156,0,0.283,1.257,0.283,2.808c0,1.551-0.127,2.809-0.283,2.809
								s-0.283-1.257-0.283-2.809C266.02,276.885,266.147,275.628,266.303,275.628z"/>
						</g>
					</g>
				</g>
			</g>
			<g>
				<g>
					<g>
						<g>
							<path style="fill:#263238;" d="M266.303,264.394c0.156,0,0.283,1.257,0.283,2.808c0,1.551-0.127,2.809-0.283,2.809
								s-0.283-1.257-0.283-2.809C266.02,265.652,266.147,264.394,266.303,264.394z"/>
						</g>
					</g>
				</g>
			</g>
			<g>
				<g>
					<g>
						<g>
							<path style="fill:#263238;" d="M269.022,256.059c0,0.156-1.217,0.283-2.719,0.283c0.566-0.566,0.157-0.156,0.283-0.282v0.001
								v0.002v0.004v0.009v0.018l0,0.035l0,0.07l-0.001,0.138l-0.004,0.27c-0.005,0.161-0.011,0.328-0.017,0.51
								c-0.014,0.325-0.035,0.618-0.061,0.864c-0.051,0.492-0.122,0.796-0.2,0.796c-0.078,0-0.149-0.304-0.2-0.796
								c-0.026-0.246-0.046-0.539-0.061-0.864c-0.006-0.182-0.011-0.349-0.017-0.51l-0.004-0.27l-0.001-0.138l0-0.07l0-0.035v-0.018
								v-0.009v-0.004v-0.002v-0.001c0.126-0.127-0.283,0.282,0.283-0.284C267.805,255.776,269.022,255.902,269.022,256.059z"/>
						</g>
					</g>
				</g>
			</g>
			<g>
				<g>
					<g>
						<g>
							<path style="fill:#263238;" d="M280.661,256.059c0,0.156-1.303,0.283-2.91,0.283c-1.607,0-2.91-0.127-2.91-0.283
								s1.302-0.283,2.91-0.283C279.358,255.776,280.661,255.902,280.661,256.059z"/>
						</g>
					</g>
				</g>
			</g>
			<g>
				<g>
					<g>
						<g>
							<path style="fill:#263238;" d="M292.301,256.059c0,0.156-1.303,0.283-2.91,0.283c-1.607,0-2.91-0.127-2.91-0.283
								s1.303-0.283,2.91-0.283C290.998,255.776,292.301,255.902,292.301,256.059z"/>
						</g>
					</g>
				</g>
			</g>
			<g>
				<g>
					<g>
						<g>
							<path style="fill:#263238;" d="M303.94,256.059c0,0.156-1.303,0.283-2.91,0.283c-1.607,0-2.91-0.127-2.91-0.283
								s1.303-0.283,2.91-0.283C302.637,255.776,303.94,255.902,303.94,256.059z"/>
						</g>
					</g>
				</g>
			</g>
			<g>
				<g>
					<g>
						<g>
							<path style="fill:#263238;" d="M315.579,256.059c0,0.156-1.303,0.283-2.91,0.283c-1.607,0-2.91-0.127-2.91-0.283
								s1.303-0.283,2.91-0.283C314.276,255.776,315.579,255.902,315.579,256.059z"/>
						</g>
					</g>
				</g>
			</g>
			<g>
				<g>
					<g>
						<g>
							<path style="fill:#263238;" d="M327.219,256.059c0,0.156-1.303,0.283-2.91,0.283c-1.607,0-2.91-0.127-2.91-0.283
								s1.303-0.283,2.91-0.283C325.916,255.776,327.219,255.902,327.219,256.059z"/>
						</g>
					</g>
				</g>
			</g>
			<g>
				<g>
					<g>
						<g>
							<path style="fill:#263238;" d="M338.858,256.059c0,0.156-1.303,0.283-2.91,0.283c-1.607,0-2.91-0.127-2.91-0.283
								s1.303-0.283,2.91-0.283C337.555,255.776,338.858,255.902,338.858,256.059z"/>
						</g>
					</g>
				</g>
			</g>
			<g>
				<g>
					<g>
						<g>
							<path style="fill:#263238;" d="M347.396,258.778c-0.156,0-0.283-1.217-0.283-2.718c0.566,0.566,0.156,0.157,0.282,0.283
								h-0.001h-0.002h-0.005h-0.009h-0.018l-0.035,0l-0.07,0l-0.138-0.001l-0.27-0.004c-0.161-0.005-0.328-0.01-0.51-0.016
								c-0.325-0.014-0.618-0.035-0.864-0.061c-0.492-0.051-0.796-0.122-0.796-0.2c0-0.078,0.304-0.149,0.796-0.2
								c0.246-0.026,0.539-0.046,0.864-0.061c0.182-0.006,0.349-0.011,0.51-0.017l0.27-0.004l0.138-0.001l0.07,0h0.035h0.018
								l0.009,0h0.005h0.002h0.001c0.127,0.126-0.282-0.283,0.284,0.283C347.679,257.56,347.553,258.778,347.396,258.778z"/>
						</g>
					</g>
				</g>
			</g>
			<g>
				<g>
					<g>
						<g>
							<path style="fill:#263238;" d="M347.396,270.011c-0.156,0-0.283-1.257-0.283-2.808c0-1.551,0.127-2.809,0.283-2.809
								s0.283,1.257,0.283,2.809C347.679,268.754,347.553,270.011,347.396,270.011z"/>
						</g>
					</g>
				</g>
			</g>
			<g>
				<g>
					<g>
						<g>
							<path style="fill:#263238;" d="M347.396,281.245c-0.156,0-0.283-1.257-0.283-2.808c0-1.551,0.127-2.809,0.283-2.809
								s0.283,1.257,0.283,2.809C347.679,279.987,347.553,281.245,347.396,281.245z"/>
						</g>
					</g>
				</g>
			</g>
			<g>
				<g>
					<g>
						<g>
							<path style="fill:#263238;" d="M347.396,292.479c-0.156,0-0.283-1.258-0.283-2.808c0-1.551,0.127-2.809,0.283-2.809
								s0.283,1.257,0.283,2.809C347.679,291.221,347.553,292.479,347.396,292.479z"/>
						</g>
					</g>
				</g>
			</g>
			<g>
				<g>
					<g>
						<g>
							<path style="fill:#263238;" d="M347.396,303.712c-0.156,0-0.283-1.257-0.283-2.808c0-1.551,0.127-2.809,0.283-2.809
								s0.283,1.257,0.283,2.809C347.679,302.455,347.553,303.712,347.396,303.712z"/>
						</g>
					</g>
				</g>
			</g>
			<g>
				<g>
					<g>
						<g>
							<path style="fill:#263238;" d="M347.396,314.946c-0.156,0-0.283-1.257-0.283-2.808c0-1.551,0.127-2.809,0.283-2.809
								s0.283,1.257,0.283,2.809C347.679,313.688,347.553,314.946,347.396,314.946z"/>
						</g>
					</g>
				</g>
			</g>
			<g>
				<g>
					<g>
						<g>
							<path style="fill:#263238;" d="M347.396,326.18c-0.156,0-0.283-1.258-0.283-2.808c0-1.551,0.127-2.809,0.283-2.809
								s0.283,1.257,0.283,2.809C347.679,324.922,347.553,326.18,347.396,326.18z"/>
						</g>
					</g>
				</g>
			</g>
		</g>
		<g>
			<g>
				<g>
					<g>
						<g>
							<path style="fill:#E8505B;" d="M322.512,181.355c0,0-0.014-0.204-0.022-0.581c-0.005-0.4-0.013-0.951-0.023-1.659
								c-0.012-1.473-0.029-3.595-0.052-6.305c-0.026-5.453-0.063-13.266-0.108-22.822l0.204,0.204
								c-13.829,0.015-31.608,0.035-50.944,0.056c-0.06,0.056,0.488-0.492,0.257-0.256V150v0.016v0.033v0.065v0.13v0.26v0.52
								l0,1.038c0,0.691,0,1.38,0,2.066c0,1.373-0.001,2.737-0.001,4.091c-0.001,2.708-0.002,5.378-0.004,8.002
								c-0.005,5.246-0.01,10.309-0.014,15.133l-0.241-0.241c14.91,0.048,27.611,0.089,36.614,0.118
								c4.49,0.028,8.056,0.05,10.528,0.065c1.209,0.013,2.15,0.022,2.816,0.029c0.306,0.006,0.546,0.011,0.732,0.014
								C322.42,181.346,322.507,181.35,322.512,181.355c0.005,0.005-0.073,0.01-0.229,0.014c-0.18,0.004-0.411,0.008-0.705,0.014
								c-0.654,0.007-1.579,0.017-2.767,0.029c-2.46,0.015-6.007,0.037-10.474,0.065c-9.042,0.029-21.798,0.07-36.772,0.118
								l-0.241,0.001l0-0.242c-0.005-4.825-0.009-9.887-0.014-15.133c-0.001-2.624-0.003-5.293-0.004-8.002
								c0-1.354-0.001-2.718-0.001-4.091c0-0.687,0-1.375,0-2.066l0-1.038v-0.52v-0.26v-0.13v-0.065v-0.033V150v-0.008
								c-0.233,0.229,0.317-0.322,0.264-0.265c19.336,0.021,37.115,0.041,50.944,0.057l0.205,0l-0.001,0.204
								c-0.045,9.61-0.082,17.466-0.108,22.948c-0.022,2.69-0.039,4.796-0.052,6.259c-0.01,0.692-0.017,1.231-0.023,1.621
								C322.526,181.18,322.512,181.355,322.512,181.355z"/>
						</g>
					</g>
					<g>
						<g>
							<polygon style="fill:#E8505B;" points="297.35,163.066 301.532,165.316 297.517,167.96 293.502,170.605 293.336,165.71 
								293.169,160.816 							"/>
						</g>
					</g>
				</g>
				<g>
					<g>
						<g>
							<path style="fill:#E8505B;" d="M318.832,178.221c0,0.144-9.758,0.26-21.793,0.26c-12.039,0-21.795-0.117-21.795-0.26
								c0-0.144,9.756-0.26,21.795-0.26C309.074,177.961,318.832,178.078,318.832,178.221z"/>
						</g>
					</g>
					<g>
						<circle style="fill:#E8505B;" cx="275.455" cy="178.222" r="0.549"/>
					</g>
				</g>
			</g>
			<g>
				<g>
					<g>
						<rect x="333.961" y="153.66" style="fill:#E8505B;" width="54.892" height="2.758"/>
					</g>
				</g>
			</g>
			<g>
				<g>
					<g>
						<g>
							<path style="fill:#263238;" d="M407.932,165.505c0,0.156-16.485,0.283-36.816,0.283c-20.338,0-36.82-0.127-36.82-0.283
								c0-0.156,16.482-0.283,36.82-0.283C391.446,165.222,407.932,165.349,407.932,165.505z"/>
						</g>
					</g>
				</g>
			</g>
			<g>
				<g>
					<g>
						<g>
							<path style="fill:#263238;" d="M407.932,173.204c0,0.157-16.485,0.283-36.816,0.283c-20.338,0-36.82-0.127-36.82-0.283
								c0-0.156,16.482-0.283,36.82-0.283C391.446,172.92,407.932,173.047,407.932,173.204z"/>
						</g>
					</g>
				</g>
			</g>
		</g>
		<g>
			<g>
				<g>
					<g>
						<g>
							<path style="fill:#E8505B;" d="M322.512,227.434c0,0-0.014-0.204-0.022-0.581c-0.005-0.4-0.013-0.951-0.023-1.659
								c-0.012-1.473-0.029-3.595-0.052-6.304c-0.026-5.453-0.063-13.266-0.108-22.822l0.204,0.204
								c-13.829,0.015-31.608,0.035-50.944,0.056c-0.06,0.056,0.488-0.492,0.257-0.256v0.008v0.016v0.033v0.065v0.13v0.26v0.52
								l0,1.038c0,0.691,0,1.38,0,2.066c0,1.373-0.001,2.737-0.001,4.091c-0.001,2.709-0.002,5.378-0.004,8.002
								c-0.005,5.246-0.01,10.309-0.014,15.134l-0.241-0.241c14.91,0.048,27.611,0.089,36.614,0.118
								c4.49,0.028,8.056,0.05,10.528,0.065c1.209,0.013,2.15,0.022,2.816,0.029c0.306,0.006,0.546,0.011,0.732,0.014
								C322.42,227.424,322.507,227.429,322.512,227.434c0.005,0.005-0.073,0.01-0.229,0.014c-0.18,0.004-0.411,0.008-0.705,0.014
								c-0.654,0.007-1.579,0.017-2.767,0.029c-2.46,0.015-6.007,0.037-10.474,0.065c-9.042,0.029-21.798,0.07-36.772,0.118
								l-0.241,0.001l0-0.242c-0.005-4.824-0.009-9.887-0.014-15.134c-0.001-2.624-0.003-5.293-0.004-8.002
								c0-1.354-0.001-2.718-0.001-4.091c0-0.686,0-1.375,0-2.066l0-1.038v-0.52v-0.26v-0.13v-0.065v-0.033v-0.016v-0.008
								c-0.233,0.229,0.317-0.322,0.264-0.265c19.336,0.021,37.115,0.041,50.944,0.057l0.205,0l-0.001,0.204
								c-0.045,9.61-0.082,17.466-0.108,22.949c-0.022,2.69-0.039,4.796-0.052,6.259c-0.01,0.692-0.017,1.231-0.023,1.622
								C322.526,227.258,322.512,227.434,322.512,227.434z"/>
						</g>
					</g>
					<g>
						<g>
							<polygon style="fill:#E8505B;" points="297.35,209.144 301.532,211.394 297.517,214.039 293.502,216.683 293.336,211.788 
								293.169,206.894 							"/>
						</g>
					</g>
				</g>
				<g>
					<g>
						<g>
							<path style="fill:#E8505B;" d="M318.832,224.3c0,0.144-9.758,0.26-21.793,0.26c-12.039,0-21.795-0.117-21.795-0.26
								s9.756-0.26,21.795-0.26C309.074,224.04,318.832,224.156,318.832,224.3z"/>
						</g>
					</g>
					<g>
						<circle style="fill:#E8505B;" cx="275.455" cy="224.3" r="0.549"/>
					</g>
				</g>
			</g>
			<g>
				<g>
					<g>
						<rect x="333.961" y="199.738" style="fill:#E8505B;" width="54.892" height="2.758"/>
					</g>
				</g>
			</g>
			<g>
				<g>
					<g>
						<g>
							<path style="fill:#263238;" d="M407.932,211.584c0,0.156-16.485,0.283-36.816,0.283c-20.338,0-36.82-0.127-36.82-0.283
								s16.482-0.283,36.82-0.283C391.446,211.301,407.932,211.427,407.932,211.584z"/>
						</g>
					</g>
				</g>
			</g>
			<g>
				<g>
					<g>
						<g>
							<path style="fill:#263238;" d="M407.932,219.282c0,0.156-16.485,0.283-36.816,0.283c-20.338,0-36.82-0.127-36.82-0.283
								c0-0.156,16.482-0.283,36.82-0.283C391.446,218.999,407.932,219.126,407.932,219.282z"/>
						</g>
					</g>
				</g>
			</g>
		</g>
		<g>
			<g>
				<g>
					<path style="fill:#E0E0E0;" d="M244.766,238.481c0-0.144,1.119-0.26,2.5-0.26c-0.52,0.52-0.144,0.144-0.26,0.259v-0.001v-0.002
						v-0.004v-0.008v-0.016l0-0.032l0-0.064l0.001-0.127l0.004-0.248c0.005-0.149,0.01-0.302,0.015-0.469
						c0.013-0.299,0.032-0.568,0.056-0.795c0.047-0.452,0.112-0.732,0.184-0.732s0.137,0.28,0.184,0.732
						c0.024,0.226,0.043,0.496,0.056,0.795c0.005,0.167,0.01,0.321,0.015,0.469l0.004,0.248l0.001,0.127l0,0.064l0,0.032v0.016
						v0.008v0.004v0.002v0.001c-0.116,0.116,0.26-0.259-0.26,0.261C245.886,238.742,244.766,238.625,244.766,238.481z"/>
				</g>
			</g>
			<g>
				<g>
					<path style="fill:#E0E0E0;" d="M234.792,238.481c0-0.144,1.117-0.26,2.494-0.26c1.377,0,2.494,0.117,2.494,0.26
						c0,0.144-1.116,0.26-2.494,0.26C235.908,238.742,234.792,238.625,234.792,238.481z"/>
				</g>
			</g>
			<g>
				<g>
					<path style="fill:#E0E0E0;" d="M224.817,238.481c0-0.144,1.117-0.26,2.493-0.26c1.377,0,2.494,0.117,2.494,0.26
						c0,0.144-1.116,0.26-2.494,0.26C225.934,238.742,224.817,238.625,224.817,238.481z"/>
				</g>
			</g>
			<g>
				<g>
					<path style="fill:#E0E0E0;" d="M214.843,238.481c0-0.144,1.117-0.26,2.493-0.26c1.378,0,2.494,0.117,2.494,0.26
						c0,0.144-1.116,0.26-2.494,0.26C215.959,238.742,214.843,238.625,214.843,238.481z"/>
				</g>
			</g>
			<g>
				<g>
					<path style="fill:#E0E0E0;" d="M204.868,238.481c0-0.144,1.117-0.26,2.494-0.26c1.377,0,2.494,0.117,2.494,0.26
						c0,0.144-1.116,0.26-2.494,0.26C205.985,238.742,204.868,238.625,204.868,238.481z"/>
				</g>
			</g>
			<g>
				<g>
					<path style="fill:#E0E0E0;" d="M194.893,238.481c0-0.144,1.117-0.26,2.493-0.26c1.378,0,2.494,0.117,2.494,0.26
						c0,0.144-1.116,0.26-2.494,0.26C196.01,238.742,194.893,238.625,194.893,238.481z"/>
				</g>
			</g>
			<g>
				<g>
					<path style="fill:#E0E0E0;" d="M184.919,238.481c0-0.144,1.117-0.26,2.493-0.26c1.377,0,2.494,0.117,2.494,0.26
						c0,0.144-1.116,0.26-2.494,0.26C186.035,238.742,184.919,238.625,184.919,238.481z"/>
				</g>
			</g>
			<g>
				<g>
					<path style="fill:#E0E0E0;" d="M174.944,238.481c0-0.144,1.117-0.26,2.494-0.26c1.377,0,2.494,0.117,2.494,0.26
						c0,0.144-1.116,0.26-2.494,0.26C176.061,238.742,174.944,238.625,174.944,238.481z"/>
				</g>
			</g>
			<g>
				<g>
					<path style="fill:#E0E0E0;" d="M164.97,238.481c0-0.144,1.117-0.26,2.493-0.26c1.378,0,2.494,0.117,2.494,0.26
						c0,0.144-1.116,0.26-2.494,0.26C166.086,238.742,164.97,238.625,164.97,238.481z"/>
				</g>
			</g>
			<g>
				<g>
					<path style="fill:#E0E0E0;" d="M154.995,238.481c0-0.144,1.117-0.26,2.493-0.26c1.378,0,2.494,0.117,2.494,0.26
						c0,0.144-1.116,0.26-2.494,0.26C156.112,238.742,154.995,238.625,154.995,238.481z"/>
				</g>
			</g>
			<g>
				<g>
					<path style="fill:#E0E0E0;" d="M145.021,238.481c0-0.144,1.117-0.26,2.494-0.26c1.377,0,2.494,0.117,2.494,0.26
						c0,0.144-1.116,0.26-2.494,0.26C146.137,238.742,145.021,238.625,145.021,238.481z"/>
				</g>
			</g>
			<g>
				<g>
					<path style="fill:#E0E0E0;" d="M135.046,238.481c0-0.144,1.117-0.26,2.493-0.26c1.378,0,2.494,0.117,2.494,0.26
						c0,0.144-1.116,0.26-2.494,0.26C136.163,238.742,135.046,238.625,135.046,238.481z"/>
				</g>
			</g>
			<g>
				<g>
					<path style="fill:#E0E0E0;" d="M125.071,238.481c0-0.144,1.117-0.26,2.494-0.26c1.377,0,2.494,0.117,2.494,0.26
						c0,0.144-1.116,0.26-2.494,0.26C126.188,238.742,125.071,238.625,125.071,238.481z"/>
				</g>
			</g>
			<g>
				<g>
					<path style="fill:#E0E0E0;" d="M115.097,238.481c0-0.144,1.117-0.26,2.494-0.26c1.377,0,2.494,0.117,2.494,0.26
						c0,0.144-1.116,0.26-2.494,0.26C116.213,238.742,115.097,238.625,115.097,238.481z"/>
				</g>
			</g>
			<g>
				<g>
					<path style="fill:#E0E0E0;" d="M105.122,238.481c0-0.144,1.117-0.26,2.493-0.26c1.377,0,2.494,0.117,2.494,0.26
						c0,0.144-1.116,0.26-2.494,0.26C106.239,238.742,105.122,238.625,105.122,238.481z"/>
				</g>
			</g>
			<g>
				<g>
					<path style="fill:#E0E0E0;" d="M95.148,238.481c0-0.144,1.117-0.26,2.493-0.26c1.378,0,2.494,0.117,2.494,0.26
						c0,0.144-1.116,0.26-2.494,0.26C96.264,238.742,95.148,238.625,95.148,238.481z"/>
				</g>
			</g>
			<g>
				<g>
					<path style="fill:#E0E0E0;" d="M87.66,235.981c0.144,0,0.26,1.119,0.26,2.5c-0.52-0.52-0.144-0.144-0.259-0.26h0.001h0.002
						h0.004h0.008h0.016h0.032l0.064,0l0.127,0.001l0.248,0.004c0.149,0.005,0.302,0.01,0.469,0.015
						c0.299,0.013,0.568,0.032,0.795,0.056c0.452,0.047,0.732,0.112,0.732,0.184c0,0.072-0.28,0.137-0.732,0.184
						c-0.226,0.023-0.495,0.043-0.795,0.056c-0.167,0.005-0.321,0.01-0.469,0.015l-0.248,0.004l-0.127,0.001l-0.064,0h-0.032h-0.016
						h-0.008h-0.004h-0.002h-0.001c-0.116-0.116,0.259,0.26-0.261-0.26C87.4,237.101,87.517,235.981,87.66,235.981z"/>
				</g>
			</g>
			<g>
				<g>
					<path style="fill:#E0E0E0;" d="M87.66,226.164c0.144,0,0.26,1.099,0.26,2.454c0,1.356-0.117,2.454-0.26,2.454
						c-0.144,0-0.26-1.099-0.26-2.454C87.4,227.263,87.517,226.164,87.66,226.164z"/>
				</g>
			</g>
			<g>
				<g>
					<path style="fill:#E0E0E0;" d="M87.66,216.346c0.144,0,0.26,1.099,0.26,2.454c0,1.356-0.117,2.454-0.26,2.454
						c-0.144,0-0.26-1.099-0.26-2.454C87.4,217.445,87.517,216.346,87.66,216.346z"/>
				</g>
			</g>
			<g>
				<g>
					<path style="fill:#E0E0E0;" d="M87.66,206.529c0.144,0,0.26,1.099,0.26,2.454c0,1.356-0.117,2.454-0.26,2.454
						c-0.144,0-0.26-1.099-0.26-2.454C87.4,207.628,87.517,206.529,87.66,206.529z"/>
				</g>
			</g>
			<g>
				<g>
					<path style="fill:#E0E0E0;" d="M87.66,196.711c0.144,0,0.26,1.099,0.26,2.454c0,1.356-0.117,2.454-0.26,2.454
						c-0.144,0-0.26-1.099-0.26-2.454C87.4,197.81,87.517,196.711,87.66,196.711z"/>
				</g>
			</g>
			<g>
				<g>
					<path style="fill:#E0E0E0;" d="M87.66,186.894c0.144,0,0.26,1.099,0.26,2.454c0,1.356-0.117,2.455-0.26,2.455
						c-0.144,0-0.26-1.099-0.26-2.455C87.4,187.992,87.517,186.894,87.66,186.894z"/>
				</g>
			</g>
			<g>
				<g>
					<path style="fill:#E0E0E0;" d="M87.66,177.076c0.144,0,0.26,1.099,0.26,2.454c0,1.356-0.117,2.454-0.26,2.454
						c-0.144,0-0.26-1.099-0.26-2.454C87.4,178.175,87.517,177.076,87.66,177.076z"/>
				</g>
			</g>
			<g>
				<g>
					<path style="fill:#E0E0E0;" d="M87.66,167.258c0.144,0,0.26,1.099,0.26,2.454c0,1.356-0.117,2.454-0.26,2.454
						c-0.144,0-0.26-1.099-0.26-2.454C87.4,168.357,87.517,167.258,87.66,167.258z"/>
				</g>
			</g>
			<g>
				<g>
					<path style="fill:#E0E0E0;" d="M87.66,157.441c0.144,0,0.26,1.099,0.26,2.454c0,1.356-0.117,2.454-0.26,2.454
						c-0.144,0-0.26-1.099-0.26-2.454C87.4,158.54,87.517,157.441,87.66,157.441z"/>
				</g>
			</g>
			<g>
				<g>
					<path style="fill:#E0E0E0;" d="M87.66,147.624c0.144,0,0.26,1.099,0.26,2.454c0,1.356-0.117,2.454-0.26,2.454
						c-0.144,0-0.26-1.099-0.26-2.454C87.4,148.722,87.517,147.624,87.66,147.624z"/>
				</g>
			</g>
			<g>
				<g>
					<path style="fill:#E0E0E0;" d="M90.16,140.215c0,0.144-1.119,0.26-2.5,0.26c0.52-0.52,0.144-0.144,0.26-0.259v0.001v0.002
						v0.004v0.008v0.016l0,0.032l0,0.064l-0.001,0.127l-0.004,0.248c-0.005,0.149-0.01,0.302-0.015,0.469
						c-0.013,0.299-0.032,0.568-0.056,0.795c-0.047,0.452-0.112,0.732-0.184,0.732s-0.137-0.28-0.184-0.732
						c-0.024-0.226-0.043-0.496-0.056-0.795c-0.005-0.167-0.01-0.321-0.015-0.469l-0.004-0.248l-0.001-0.127l0-0.064l0-0.032v-0.016
						v-0.008v-0.004v-0.002v-0.001c0.116-0.116-0.26,0.259,0.261-0.261C89.041,139.954,90.16,140.071,90.16,140.215z"/>
				</g>
			</g>
			<g>
				<g>
					<path style="fill:#E0E0E0;" d="M100.135,140.215c0,0.144-1.117,0.26-2.493,0.26c-1.377,0-2.494-0.117-2.494-0.26
						s1.116-0.26,2.494-0.26C99.019,139.954,100.135,140.071,100.135,140.215z"/>
				</g>
			</g>
			<g>
				<g>
					<path style="fill:#E0E0E0;" d="M110.11,140.215c0,0.144-1.117,0.26-2.493,0.26c-1.377,0-2.494-0.117-2.494-0.26
						s1.116-0.26,2.494-0.26C108.993,139.954,110.11,140.071,110.11,140.215z"/>
				</g>
			</g>
			<g>
				<g>
					<path style="fill:#E0E0E0;" d="M120.084,140.215c0,0.144-1.117,0.26-2.493,0.26c-1.378,0-2.494-0.117-2.494-0.26
						s1.116-0.26,2.494-0.26C118.968,139.954,120.084,140.071,120.084,140.215z"/>
				</g>
			</g>
			<g>
				<g>
					<path style="fill:#E0E0E0;" d="M130.059,140.215c0,0.144-1.117,0.26-2.493,0.26c-1.377,0-2.494-0.117-2.494-0.26
						s1.116-0.26,2.494-0.26C128.942,139.954,130.059,140.071,130.059,140.215z"/>
				</g>
			</g>
			<g>
				<g>
					<path style="fill:#E0E0E0;" d="M140.033,140.215c0,0.144-1.117,0.26-2.494,0.26c-1.377,0-2.494-0.117-2.494-0.26
						s1.116-0.26,2.494-0.26C138.917,139.954,140.033,140.071,140.033,140.215z"/>
				</g>
			</g>
			<g>
				<g>
					<path style="fill:#E0E0E0;" d="M150.008,140.215c0,0.144-1.117,0.26-2.493,0.26c-1.377,0-2.494-0.117-2.494-0.26
						s1.116-0.26,2.494-0.26C148.891,139.954,150.008,140.071,150.008,140.215z"/>
				</g>
			</g>
			<g>
				<g>
					<path style="fill:#E0E0E0;" d="M159.982,140.215c0,0.144-1.117,0.26-2.493,0.26c-1.378,0-2.494-0.117-2.494-0.26
						s1.116-0.26,2.494-0.26C158.866,139.954,159.982,140.071,159.982,140.215z"/>
				</g>
			</g>
			<g>
				<g>
					<path style="fill:#E0E0E0;" d="M169.957,140.215c0,0.144-1.117,0.26-2.494,0.26c-1.377,0-2.494-0.117-2.494-0.26
						s1.116-0.26,2.494-0.26C168.84,139.954,169.957,140.071,169.957,140.215z"/>
				</g>
			</g>
			<g>
				<g>
					<path style="fill:#E0E0E0;" d="M179.932,140.215c0,0.144-1.117,0.26-2.493,0.26c-1.378,0-2.494-0.117-2.494-0.26
						s1.116-0.26,2.494-0.26C178.815,139.954,179.932,140.071,179.932,140.215z"/>
				</g>
			</g>
			<g>
				<g>
					<path style="fill:#E0E0E0;" d="M189.906,140.215c0,0.144-1.117,0.26-2.493,0.26c-1.378,0-2.494-0.117-2.494-0.26
						s1.116-0.26,2.494-0.26C188.79,139.954,189.906,140.071,189.906,140.215z"/>
				</g>
			</g>
			<g>
				<g>
					<path style="fill:#E0E0E0;" d="M199.881,140.215c0,0.144-1.117,0.26-2.494,0.26c-1.377,0-2.494-0.117-2.494-0.26
						s1.116-0.26,2.494-0.26C198.764,139.954,199.881,140.071,199.881,140.215z"/>
				</g>
			</g>
			<g>
				<g>
					<path style="fill:#E0E0E0;" d="M209.855,140.215c0,0.144-1.117,0.26-2.493,0.26c-1.378,0-2.494-0.117-2.494-0.26
						s1.116-0.26,2.494-0.26C208.739,139.954,209.855,140.071,209.855,140.215z"/>
				</g>
			</g>
			<g>
				<g>
					<path style="fill:#E0E0E0;" d="M219.83,140.215c0,0.144-1.117,0.26-2.493,0.26c-1.378,0-2.494-0.117-2.494-0.26
						s1.116-0.26,2.494-0.26C218.713,139.954,219.83,140.071,219.83,140.215z"/>
				</g>
			</g>
			<g>
				<g>
					<path style="fill:#E0E0E0;" d="M229.804,140.215c0,0.144-1.117,0.26-2.494,0.26c-1.377,0-2.494-0.117-2.494-0.26
						s1.116-0.26,2.494-0.26C228.688,139.954,229.804,140.071,229.804,140.215z"/>
				</g>
			</g>
			<g>
				<g>
					<path style="fill:#E0E0E0;" d="M239.779,140.215c0,0.144-1.117,0.26-2.494,0.26c-1.377,0-2.494-0.117-2.494-0.26
						s1.116-0.26,2.494-0.26C238.662,139.954,239.779,140.071,239.779,140.215z"/>
				</g>
			</g>
			<g>
				<g>
					<path style="fill:#E0E0E0;" d="M247.266,142.715c-0.144,0-0.26-1.119-0.26-2.5c0.52,0.52,0.144,0.144,0.26,0.26h-0.001h-0.002
						h-0.004h-0.008h-0.016l-0.032,0l-0.064,0l-0.127-0.001l-0.248-0.004c-0.149-0.005-0.302-0.01-0.469-0.015
						c-0.299-0.013-0.569-0.032-0.795-0.056c-0.452-0.047-0.732-0.112-0.732-0.184s0.28-0.137,0.732-0.184
						c0.226-0.024,0.496-0.043,0.795-0.056c0.167-0.005,0.321-0.01,0.469-0.015l0.248-0.004l0.127-0.001l0.064,0l0.032,0h0.016
						h0.008h0.004h0.002h0.001c0.117,0.116-0.259-0.26,0.261,0.26C247.527,141.595,247.41,142.715,247.266,142.715z"/>
				</g>
			</g>
			<g>
				<g>
					<path style="fill:#E0E0E0;" d="M247.266,152.532c-0.144,0-0.26-1.099-0.26-2.454c0-1.356,0.117-2.454,0.26-2.454
						s0.26,1.099,0.26,2.454C247.527,151.433,247.41,152.532,247.266,152.532z"/>
				</g>
			</g>
			<g>
				<g>
					<path style="fill:#E0E0E0;" d="M247.266,162.35c-0.144,0-0.26-1.099-0.26-2.454c0-1.356,0.117-2.454,0.26-2.454
						s0.26,1.099,0.26,2.454C247.527,161.251,247.41,162.35,247.266,162.35z"/>
				</g>
			</g>
			<g>
				<g>
					<path style="fill:#E0E0E0;" d="M247.266,172.167c-0.144,0-0.26-1.099-0.26-2.454c0-1.356,0.117-2.454,0.26-2.454
						s0.26,1.099,0.26,2.454C247.527,171.068,247.41,172.167,247.266,172.167z"/>
				</g>
			</g>
			<g>
				<g>
					<path style="fill:#E0E0E0;" d="M247.266,181.985c-0.144,0-0.26-1.099-0.26-2.454c0-1.356,0.117-2.454,0.26-2.454
						s0.26,1.099,0.26,2.454C247.527,180.886,247.41,181.985,247.266,181.985z"/>
				</g>
			</g>
			<g>
				<g>
					<path style="fill:#E0E0E0;" d="M247.266,191.802c-0.144,0-0.26-1.099-0.26-2.454c0-1.356,0.117-2.454,0.26-2.454
						s0.26,1.099,0.26,2.454C247.527,190.703,247.41,191.802,247.266,191.802z"/>
				</g>
			</g>
			<g>
				<g>
					<path style="fill:#E0E0E0;" d="M247.266,201.62c-0.144,0-0.26-1.099-0.26-2.454c0-1.356,0.117-2.454,0.26-2.454
						s0.26,1.099,0.26,2.454C247.527,200.521,247.41,201.62,247.266,201.62z"/>
				</g>
			</g>
			<g>
				<g>
					<path style="fill:#E0E0E0;" d="M247.266,211.437c-0.144,0-0.26-1.099-0.26-2.454c0-1.356,0.117-2.454,0.26-2.454
						s0.26,1.099,0.26,2.454C247.527,210.338,247.41,211.437,247.266,211.437z"/>
				</g>
			</g>
			<g>
				<g>
					<path style="fill:#E0E0E0;" d="M247.266,221.255c-0.144,0-0.26-1.099-0.26-2.454c0-1.356,0.117-2.454,0.26-2.454
						s0.26,1.099,0.26,2.454C247.527,220.156,247.41,221.255,247.266,221.255z"/>
				</g>
			</g>
			<g>
				<g>
					<path style="fill:#E0E0E0;" d="M247.266,231.072c-0.144,0-0.26-1.099-0.26-2.454c0-1.356,0.117-2.454,0.26-2.454
						s0.26,1.099,0.26,2.454C247.527,229.973,247.41,231.072,247.266,231.072z"/>
				</g>
			</g>
		</g>
	</g>
</g>
<g id="Character">
	<g>
		<g>
			<g>
				<g>
					<g>
						<path style="fill:#E8505B;" d="M235.745,237.714l-155.101,8.508c-1.178,0.065-2.185-0.838-2.25-2.016l-5.148-93.854
							c-0.065-1.178,0.838-2.185,2.016-2.25l155.101-8.508c1.178-0.065,2.185,0.838,2.25,2.016l5.148,93.854
							C237.825,236.642,236.923,237.649,235.745,237.714z"/>
					</g>
					<g>
						<g>
							<polygon style="fill:#FFFFFF;" points="156.626,182.938 170.091,189.259 157.986,198.219 145.881,207.18 144.521,191.898 
								143.161,176.617 							"/>
						</g>
					</g>
				</g>
				<g>
					<g>
						<g>
							<path style="fill:#FFFFFF;" d="M225.831,228.426c0.008,0.144-30.511,1.934-68.156,3.999
								c-37.659,2.066-68.184,3.623-68.191,3.48c-0.008-0.143,30.504-1.934,68.163-4
								C195.292,229.841,225.823,228.283,225.831,228.426z"/>
						</g>
					</g>
					<g>
						<path style="fill:#FFFFFF;" d="M91.861,235.775c0.052,0.949-0.675,1.761-1.624,1.813c-0.949,0.052-1.761-0.675-1.813-1.624
							c-0.052-0.949,0.675-1.761,1.624-1.813C90.998,234.099,91.809,234.826,91.861,235.775z"/>
					</g>
				</g>
			</g>
			<g style="opacity:0.3;">
				<g>
					<path d="M222.076,140.188c-2.475,4.758-5.017,10.193-3.313,15.278c0.783,2.337,2.389,4.292,3.602,6.438
						c3.712,6.566,3.587,14.538,3.362,22.077c-0.064,2.137-0.245,4.535-1.86,5.936c-1.322,1.148-3.22,1.27-4.97,1.337
						c-7.032,0.269-14.065,0.537-21.097,0.806v37.149l39.143-8.655l-1.866-55.58l-0.947-9.378l-3.954-15.99L222.076,140.188z"/>
				</g>
			</g>
		</g>
		<g>
			<g>
				<g>
					<g>
						<polygon style="fill:#E8505B;" points="188.535,440.579 189.865,471.922 206.789,471.543 205.522,440.136 						"/>
					</g>
				</g>
				<g>
					<g>
						<g>
							<path style="fill:#263238;" d="M198.175,470.553c0.141-0.008-0.121-6.872-0.586-15.329c-0.465-8.46-0.956-15.31-1.098-15.302
								c-0.141,0.008,0.121,6.87,0.586,15.33C197.542,463.71,198.034,470.561,198.175,470.553z"/>
						</g>
					</g>
				</g>
				<g>
					<g>
						<polygon style="fill:#E0E0E0;" points="189.773,469.761 206.7,469.326 206.789,471.543 189.865,471.922 						"/>
					</g>
				</g>
				<g>
					<g>
						<g>
							<path style="fill:#263238;" d="M206.384,461.506c0.025-0.021-0.132-0.263-0.465-0.665c-0.333-0.401-0.857-0.949-1.582-1.542
								c-0.725-0.59-1.661-1.223-2.816-1.705c-1.144-0.491-2.526-0.81-3.983-0.729c-2.924,0.141-5.316,1.687-6.46,3.171
								c-0.596,0.734-0.953,1.414-1.152,1.896c-0.195,0.486-0.263,0.767-0.234,0.778c0.095,0.047,0.451-1.08,1.66-2.438
								c1.168-1.361,3.441-2.76,6.216-2.896c2.765-0.144,5.109,1.147,6.548,2.209C205.584,460.674,206.316,461.568,206.384,461.506z
								"/>
						</g>
					</g>
				</g>
				<g style="opacity:0.3;">
					<g>
						<polygon points="205.882,449.076 206.022,452.529 189.055,452.833 188.944,450.232 						"/>
					</g>
				</g>
			</g>
			<g>
				<g>
					<g>
						<g>
							<g>
								<path style="fill:#E8505B;" d="M147.597,441.396l0.849,19.608c0,0-19.645,7.448-19.841,11.088l38.078-0.281l-0.07-30.606
									L147.597,441.396z"/>
							</g>
						</g>
						<g>
							<g>
								<g>
									<path style="fill:#E0E0E0;" d="M159.955,459.339c0.744,0.198,1.263,1.028,1.096,1.779
										c-0.167,0.751-1.007,1.286-1.754,1.102c-0.747-0.184-1.401-1.163-1.151-1.89c0.25-0.728,1.271-1.302,1.952-0.944"/>
								</g>
							</g>
						</g>
						<g>
							<g>
								<path style="fill:#E0E0E0;" d="M166.683,471.809l-0.007-3.064l-36.843,1.39c0,0-1.702,0.755-1.5,1.957L166.683,471.809z"/>
							</g>
						</g>
						<g>
							<g>
								<g>
									<path style="fill:#263238;" d="M148.101,461.131c0.008,0.187,0.945,0.265,1.87,0.861c0.942,0.571,1.422,1.379,1.594,1.303
										c0.173-0.038-0.115-1.155-1.249-1.856C149.19,460.728,148.059,460.96,148.101,461.131z"/>
								</g>
							</g>
						</g>
						<g>
							<g>
								<g>
									<path style="fill:#263238;" d="M144.091,462.824c-0.042,0.182,0.772,0.494,1.414,1.282
										c0.665,0.768,0.832,1.624,1.018,1.614c0.176,0.028,0.298-1.07-0.519-2.033
										C145.196,462.716,144.094,462.646,144.091,462.824z"/>
								</g>
							</g>
						</g>
						<g>
							<g>
								<g>
									<path style="fill:#263238;" d="M141.842,467.656c0.171,0.039,0.424-0.899-0.064-1.921
										c-0.481-1.026-1.367-1.424-1.445-1.267c-0.105,0.155,0.468,0.701,0.856,1.546
										C141.596,466.849,141.656,467.639,141.842,467.656z"/>
								</g>
							</g>
						</g>
						<g>
							<g>
								<g>
									<path style="fill:#263238;" d="M148.406,456.609c0.08,0.17,0.937-0.095,1.996-0.031c1.061,0.043,1.887,0.392,1.983,0.23
										c0.107-0.136-0.702-0.823-1.95-0.881C149.187,455.86,148.313,456.463,148.406,456.609z"/>
								</g>
							</g>
						</g>
					</g>
					<g>
						<g>
							<g>
								<path style="fill:#263238;" d="M147.692,452.389c-0.001,0.077,0.739,0.188,1.921-0.024c0.588-0.106,1.28-0.304,2.005-0.632
									c0.362-0.165,0.732-0.361,1.098-0.593c0.176-0.115,0.385-0.231,0.577-0.456c0.206-0.197,0.32-0.694,0.078-0.997
									c-0.199-0.293-0.547-0.418-0.824-0.422c-0.283-0.007-0.511,0.052-0.719,0.105c-0.426,0.107-0.826,0.251-1.191,0.419
									c-0.73,0.339-1.322,0.765-1.763,1.175c-0.883,0.831-1.182,1.532-1.118,1.568c0.085,0.061,0.514-0.528,1.414-1.215
									c0.449-0.342,1.023-0.696,1.706-0.978c0.342-0.139,0.71-0.259,1.1-0.348c0.406-0.11,0.751-0.115,0.857,0.065
									c0.038,0.069,0.043,0.096-0.041,0.216c-0.087,0.11-0.251,0.219-0.424,0.333c-0.337,0.224-0.678,0.419-1.01,0.587
									c-0.667,0.337-1.305,0.568-1.852,0.725C148.41,452.231,147.688,452.287,147.692,452.389z"/>
							</g>
						</g>
					</g>
					<g>
						<g>
							<g>
								<path style="fill:#263238;" d="M147.937,452.655c0.067,0.028,0.433-0.646,0.493-1.859c0.028-0.602-0.04-1.33-0.277-2.101
									c-0.121-0.384-0.284-0.777-0.498-1.162c-0.228-0.377-0.505-0.883-1.232-0.961c-0.379-0.011-0.692,0.287-0.798,0.542
									c-0.125,0.26-0.149,0.483-0.192,0.705c-0.067,0.449-0.056,0.888,0.008,1.294c0.127,0.815,0.466,1.492,0.835,1.978
									c0.757,0.988,1.54,1.206,1.555,1.143c0.062-0.094-0.594-0.451-1.174-1.402c-0.286-0.469-0.542-1.088-0.621-1.8
									c-0.04-0.355-0.037-0.732,0.027-1.11c0.057-0.408,0.207-0.738,0.36-0.697c0.191-0.005,0.517,0.3,0.676,0.624
									c0.2,0.342,0.359,0.693,0.483,1.038c0.245,0.691,0.355,1.354,0.386,1.914C148.03,451.925,147.835,452.628,147.937,452.655z"
									/>
							</g>
						</g>
					</g>
				</g>
				<g style="opacity:0.3;">
					<g>
						<polygon points="166.688,452.962 166.65,457.312 148.286,457.312 148.286,454.922 						"/>
					</g>
				</g>
			</g>
			<g>
				<g>
					<path style="fill:#FFBE9D;" d="M223.698,143.239c-0.425,0.048-1.542,4.337-2.085,6.524c-0.198,0.8-0.084,1.642,0.322,2.359
						l4.41,7.803c0.818,1.448,2.013,2.647,3.458,3.47l2.21,1.259l0.285,4.64l12.412,0.195l-3.782-14.474l-1.578-8.834
						c-0.421-0.885-1.254-1.503-2.223-1.649l-1.164-0.175l-0.444-1.116c-0.264-0.663-0.867-1.131-1.575-1.22l-0.724-0.092
						l-1.019-2.51c-0.337-0.831-1.15-1.371-2.047-1.359l-6.012,0.079c0,0-1.32,1.784,1.706,2.615
						c1.483,0.407,2.578,0.325,2.578,0.325l1.4,5.409c0,0,0.989,5.683-1.668,5.677c-2.338-0.005-2.562-3.051-2.562-3.051
						S226.757,142.895,223.698,143.239z"/>
				</g>
				<g>
					<g>
						<path style="fill:#EB996E;" d="M236.022,148.659c-0.042,0.002-0.01-0.454-0.235-1.128c-0.215-0.691-0.746-1.492-1.688-2.15
							c-0.517-1.042-0.756-1.979-0.932-2.694c-0.155-0.711-0.153-1.164-0.13-1.165c0.034-0.003,0.083,0.44,0.273,1.13
							c0.194,0.669,0.501,1.672,0.949,2.597c0.186,0.163,0.404,0.318,0.607,0.502c0.195,0.181,0.363,0.377,0.505,0.576
							c0.283,0.399,0.456,0.809,0.556,1.162c0.101,0.354,0.125,0.652,0.125,0.856C236.054,148.548,236.033,148.66,236.022,148.659z"
							/>
					</g>
				</g>
				<g>
					<g>
						<path style="fill:#EB996E;" d="M237.914,147.615c-0.022-0.004,0-0.24-0.183-0.567c-0.164-0.327-0.577-0.692-1.153-0.749
							l-0.063-0.006l-0.023-0.061c-0.023-0.063-0.047-0.129-0.072-0.195c-0.445-1.22-0.762-2.225-0.707-2.245
							c0.054-0.02,0.458,0.953,0.903,2.174c0.024,0.067,0.048,0.132,0.071,0.195l-0.085-0.067c0.646,0.065,1.117,0.518,1.255,0.893
							C238.024,147.36,237.944,147.63,237.914,147.615z"/>
					</g>
				</g>
				<g>
					<g>
						<path style="fill:#EB996E;" d="M228.426,141.08c-0.044,0.04-0.271-0.267-0.213-0.69c0.052-0.411,0.26-0.681,0.308-0.651
							c0.052,0.027-0.057,0.316-0.101,0.675C228.369,140.773,228.477,141.048,228.426,141.08z"/>
					</g>
				</g>
			</g>
			<g>
				<g>
					<g>
						<g>
							<g>
								<g>
									<g>
										<g>
											<path style="fill:#FFBE9D;" d="M164.856,197.345l22.508-0.289l-2.513-19.164c0,0,1.538-0.329,1.641-8.666
												c0.103-8.338,0.486-22.503,0.486-22.503l0,0c-9.652-4.148-20.792-2.747-29.117,3.66l-1.235,0.951L164.856,197.345z"/>
										</g>
									</g>
								</g>
							</g>
						</g>
					</g>
				</g>
				<g>
					<g>
						<g>
							<g>
								<g>
									<path style="fill:#FFBE9D;" d="M159.239,161.587c-0.142-0.062-5.729-1.694-5.547,4.006c0.182,5.7,5.867,4.341,5.872,4.178
										C159.569,169.607,159.239,161.587,159.239,161.587z"/>
								</g>
							</g>
						</g>
					</g>
				</g>
				<g>
					<g>
						<g>
							<g>
								<g>
									<path style="fill:#FFBE9D;" d="M186.01,160.397c0.142-0.061,5.223-1.432,5.041,4.269c-0.182,5.7-5.867,4.341-5.872,4.178
										C185.175,168.679,186.01,160.397,186.01,160.397z"/>
								</g>
							</g>
						</g>
					</g>
				</g>
				<g>
					<g>
						<path style="fill:#263238;" d="M192.407,143.931c0.089-1.033-0.295-2.143-1.137-2.75c-0.841-0.607-2.145-0.569-2.829,0.212
							c0.392-1.392-0.747-2.998-2.19-3.09c-1.36-0.086-2.519,0.941-3.833,1.301c-1.283,0.352-2.659,0.048-3.893-0.449
							s-2.387-1.183-3.636-1.639c-2.606-0.952-5.585-0.832-8.106,0.325c-2.521,1.157-4.554,3.339-5.53,5.935
							c-1.823-0.57-3.895,0.356-5.02,1.9c-1.124,1.544-1.413,3.573-1.189,5.47c0.151,1.282,0.522,2.521,0.953,3.741
							c0,0.107-0.011,0.212-0.009,0.32c0.086,4.585,2.477,19.073,4.433,19.103c3.409,0.052,0.725-15.475,0.725-15.475
							c4.184-1.617,2.625-7.885,3.671-8.836c1.046-0.951,3.234-3.161,11.994,1.316c3.401,1.738,7.924,1.684,10.393,1.124
							c0.072-0.016,0.146-0.027,0.218-0.044c0.015-0.004,0.035-0.007,0.051-0.01c0.027-0.007,0.046-0.022,0.072-0.029
							c0.787-0.205,1.546-0.51,2.246-0.953c0.793-0.502,1.515-1.182,1.851-2.058c0.336-0.877,0.21-1.971-0.478-2.61
							C191.811,145.924,192.318,144.964,192.407,143.931z"/>
					</g>
				</g>
				<g>
					<path style="fill:#263238;" d="M157.391,160.951c0.852,4.776,0.684,7.286,1.472,10.476c1.247,5.048,3.754,8.919,8.302,11.44
						c4.548,2.521,10.7,2.476,14.606-0.956c2.711-2.382,4.632-5.073,5.034-8.659c0.402-3.586,0.805-9.936,0.831-13.545
						c0.046-6.508,0.482-12.729,0.482-12.729l-18.593-3.365l-10.581,6.291L157.391,160.951z"/>
				</g>
				<g>
					<g>
						<path style="fill:#263238;" d="M176.569,185.746c0.028,0.132-1.435,0.494-3.258,0.288c-1.825-0.196-3.174-0.868-3.117-0.991
							c0.054-0.143,1.429,0.288,3.174,0.473C175.112,185.715,176.548,185.594,176.569,185.746z"/>
					</g>
				</g>
				<g>
					<g>
						<path style="fill:#455A64;" d="M181.405,142.776c0,0-0.3,0.135-0.883,0.163c-0.58,0.026-1.439-0.104-2.38-0.555
							c-0.954-0.428-1.932-1.203-3.012-2.02c-1.072-0.818-2.37-1.627-3.928-1.811c-1.538-0.206-3.055,0.101-4.234,0.74
							c-1.192,0.631-2.037,1.558-2.58,2.415c-1.084,1.758-1.042,3.122-1.105,3.096c0,0-0.014-0.322,0.091-0.893
							c0.111-0.566,0.349-1.387,0.889-2.28c0.538-0.884,1.392-1.847,2.614-2.507c1.209-0.667,2.769-0.989,4.353-0.777
							c1.605,0.189,2.948,1.035,4.015,1.864c1.081,0.832,2.033,1.605,2.961,2.041c0.915,0.459,1.746,0.607,2.315,0.607
							C181.092,142.855,181.4,142.753,181.405,142.776z"/>
					</g>
				</g>
				<g>
					<g>
						<path style="fill:#455A64;" d="M163.544,145.124c-0.021,0.039-0.475-0.303-1.336-0.5c-0.84-0.202-2.142-0.188-3.286,0.515
							c-1.139,0.713-1.73,1.873-1.923,2.715c-0.206,0.858-0.101,1.418-0.146,1.419c-0.012,0.002-0.046-0.134-0.068-0.385
							c-0.023-0.251-0.017-0.62,0.07-1.066c0.161-0.878,0.755-2.108,1.957-2.86c1.208-0.742,2.573-0.727,3.431-0.481
							c0.438,0.12,0.771,0.279,0.986,0.411C163.444,145.024,163.551,145.115,163.544,145.124z"/>
					</g>
				</g>
				<g>
					<g>
						<path style="fill:#455A64;" d="M162.993,165.451c-0.132,0.057-0.83-1.251-1.559-2.922c-0.729-1.672-1.214-3.073-1.082-3.13
							c0.132-0.058,0.83,1.251,1.559,2.922C162.64,163.992,163.125,165.393,162.993,165.451z"/>
					</g>
				</g>
				<g>
					<g>
						<path style="fill:#455A64;" d="M167.865,168.725c-0.075,0.109-1.494-0.871-2.633-2.629c-1.152-1.75-1.479-3.444-1.348-3.468
							c0.148-0.046,0.682,1.513,1.784,3.184C166.754,167.492,167.967,168.607,167.865,168.725z"/>
					</g>
				</g>
				<g>
					<g>
						<path style="fill:#455A64;" d="M172.673,169.779c-0.073,0.119-1.133-0.415-2.225-1.372c-1.096-0.953-1.769-1.93-1.661-2.019
							c0.113-0.096,0.941,0.703,2.004,1.627C171.849,168.942,172.753,169.654,172.673,169.779z"/>
					</g>
				</g>
				<g>
					<g>
						<path style="fill:#455A64;" d="M181.161,162.053c0.135,0.007,0.123,1.342-0.503,2.84c-0.617,1.502-1.552,2.455-1.653,2.364
							c-0.12-0.094,0.59-1.141,1.171-2.563C180.771,163.277,181.01,162.035,181.161,162.053z"/>
					</g>
				</g>
				<g>
					<g>
						<path style="fill:#455A64;" d="M184.04,157.55c0.133-0.01,0.27,1.611-0.328,3.494c-0.586,1.888-1.625,3.14-1.728,3.055
							c-0.129-0.085,0.675-1.411,1.231-3.211C183.788,159.094,183.886,157.546,184.04,157.55z"/>
					</g>
				</g>
				<g>
					<g>
						<path style="fill:#455A64;" d="M186.249,146.028c0,0-0.223,0.258-0.744,0.577c-0.515,0.32-1.358,0.659-2.448,0.754
							c-1.087,0.105-2.408-0.068-3.755-0.577c-1.355-0.492-2.73-1.279-4.166-2.077c-1.436-0.798-2.852-1.489-4.23-1.823
							c-1.373-0.354-2.682-0.295-3.703,0.018c-1.027,0.303-1.756,0.818-2.172,1.243c-0.422,0.425-0.584,0.724-0.604,0.71
							c0,0,0.134-0.315,0.546-0.766c0.406-0.451,1.14-0.999,2.187-1.327c1.038-0.339,2.389-0.415,3.791-0.063
							c1.409,0.33,2.845,1.027,4.286,1.827c1.441,0.801,2.801,1.585,4.133,2.08c1.324,0.511,2.61,0.693,3.677,0.61
							C185.226,147.059,186.239,145.959,186.249,146.028z"/>
					</g>
				</g>
				<g>
					<g>
						<path style="fill:#455A64;" d="M187.903,148.731c0.007,0.012-0.101,0.083-0.302,0.201c-0.2,0.121-0.503,0.272-0.887,0.436
							c-0.766,0.331-1.886,0.668-3.161,0.787c-1.276,0.115-2.438-0.015-3.251-0.201c-0.407-0.092-0.732-0.186-0.951-0.268
							c-0.219-0.079-0.338-0.13-0.333-0.143c0.011-0.035,0.501,0.122,1.313,0.267c0.81,0.147,1.952,0.25,3.204,0.138
							c1.251-0.117,2.355-0.425,3.125-0.716C187.432,148.942,187.886,148.699,187.903,148.731z"/>
					</g>
				</g>
			</g>
			<g>
				<g>
					<polyline style="fill:#263238;" points="177.54,321.019 183.014,373.782 186.943,453.241 207.911,453.241 208.479,284.125 
						148.445,288.406 136.005,377.136 146.779,454.795 169.786,454.795 164.398,380.954 177.54,321.019 					"/>
				</g>
				<g>
					<g>
						<path style="fill:#455A64;" d="M177.54,321.019c0.096,0.107-1.73,1.908-4.079,4.022c-2.349,2.115-4.331,3.743-4.428,3.636
							s1.73-1.908,4.079-4.023C175.461,322.54,177.443,320.912,177.54,321.019z"/>
					</g>
				</g>
				<g>
					<g>
						<path style="fill:#455A64;" d="M177.479,319.964c-0.142-0.012-0.022-3.039,0.11-6.773c0.144-3.735,0.249-6.762,0.392-6.764
							c0.145-0.002,0.274,3.038,0.129,6.783C177.977,316.953,177.624,319.976,177.479,319.964z"/>
					</g>
				</g>
				<g>
					<g>
						<path style="fill:#455A64;" d="M184.413,300.27c-0.01-0.008,0.105-0.021,0.336-0.037c0.277-0.016,0.619-0.037,1.036-0.061
							c0.98-0.048,2.315-0.113,3.979-0.195c3.522-0.147,8.424-0.352,14.215-0.594l0.242-0.01l0,0.245
							c0.008,4.435,0.016,9.455,0.025,14.759l0,0.284v0.176l-0.163,0.065c-3.22,1.29-6.325,2.534-9.248,3.704l-0.087,0.035
							l-0.087-0.03c-2.926-1.017-5.671-1.97-8.176-2.841l-0.128-0.044l-0.017-0.131c-0.598-4.605-1.096-8.442-1.453-11.194
							c-0.157-1.284-0.282-2.313-0.375-3.078C184.432,300.621,184.395,300.255,184.413,300.27c0.009,0.007,0.031,0.109,0.065,0.3
							c0.039,0.228,0.085,0.501,0.141,0.832c0.122,0.774,0.287,1.815,0.493,3.114c0.408,2.709,0.978,6.486,1.661,11.019
							l-0.145-0.175c2.512,0.852,5.263,1.786,8.196,2.781l-0.173,0.004c2.92-1.178,6.022-2.429,9.239-3.726l-0.163,0.241v-0.284
							c0.009-5.304,0.018-10.323,0.025-14.759l0.243,0.235c-5.729,0.142-10.577,0.262-14.061,0.348
							c-1.689,0.03-3.045,0.055-4.04,0.073c-0.438,0.004-0.796,0.007-1.087,0.009C184.557,300.283,184.423,300.279,184.413,300.27z"
							/>
					</g>
				</g>
				<g>
					<g>
						<path style="fill:#455A64;" d="M154.144,300.526c-0.009-0.009,0.095-0.019,0.303-0.031c0.252-0.011,0.559-0.024,0.933-0.04
							c0.888-0.028,2.093-0.065,3.597-0.112c3.196-0.074,7.653-0.178,12.967-0.301l0.239-0.005l-0.008,0.241
							c-0.141,4.381-0.303,9.429-0.476,14.805l-0.004,0.135l-0.113,0.074c-0.476,0.311-0.986,0.645-1.5,0.981
							c-2.634,1.717-5.185,3.38-7.603,4.957l-0.133,0.087l-0.135-0.082c-3.088-1.881-5.968-3.636-8.563-5.217l-0.109-0.066
							l0.004-0.125c0.161-4.599,0.296-8.43,0.392-11.179c0.056-1.281,0.1-2.308,0.133-3.072
							C154.103,300.874,154.128,300.51,154.144,300.526c0.008,0.008,0.013,0.111,0.017,0.302c0.001,0.229,0.003,0.503,0.004,0.835
							c-0.005,0.776-0.013,1.82-0.022,3.122c-0.041,2.717-0.098,6.504-0.166,11.051l-0.104-0.191
							c2.606,1.563,5.498,3.297,8.599,5.158l-0.267,0.005c2.415-1.581,4.962-3.25,7.592-4.972c0.514-0.336,1.025-0.669,1.501-0.98
							l-0.118,0.209c0.196-5.375,0.38-10.423,0.54-14.803l0.231,0.235c-5.256,0.029-9.665,0.053-12.827,0.07
							c-1.525-0.003-2.748-0.006-3.649-0.008c-0.392-0.005-0.713-0.009-0.978-0.013
							C154.273,300.542,154.152,300.535,154.144,300.526z"/>
					</g>
				</g>
				<g>
					<g>
						<path style="fill:#455A64;" d="M202.001,324.429c-0.006,0.07-1.092,0.041-2.842-0.089c-1.75-0.13-4.162-0.368-6.817-0.712
							c-2.656-0.345-5.049-0.73-6.774-1.051c-1.725-0.32-2.783-0.57-2.771-0.639c0.012-0.072,1.091,0.048,2.828,0.275
							c1.906,0.252,4.222,0.559,6.784,0.898c2.563,0.326,4.88,0.62,6.787,0.862C200.933,324.197,202.007,324.356,202.001,324.429z"
							/>
					</g>
				</g>
				<g>
					<g>
						<path style="fill:#455A64;" d="M201.514,383.245c0.022,0.01-0.085,0.303-0.496,0.665c-0.406,0.352-1.16,0.728-2.145,0.728
							c-0.987,0.034-2.137-0.42-3.132-1.201c-1.007-0.784-1.914-1.809-2.855-2.888c-1.873-2.175-3.314-4.347-4.246-5.974
							c-0.931-1.63-1.385-2.7-1.326-2.73c0.069-0.036,0.637,0.971,1.641,2.538c1.005,1.565,2.476,3.677,4.327,5.826
							c0.929,1.067,1.824,2.094,2.756,2.85c0.931,0.758,1.946,1.194,2.842,1.21c0.898,0.045,1.603-0.243,2.016-0.521
							C201.311,383.463,201.476,383.217,201.514,383.245z"/>
					</g>
				</g>
				<g>
					<g>
						<path style="fill:#455A64;" d="M160.102,385.096c0.023,0.01-0.034,0.269-0.283,0.674c-0.246,0.403-0.715,0.935-1.449,1.378
							c-0.732,0.436-1.735,0.769-2.877,0.755c-1.143-0.011-2.368-0.411-3.466-1.1c-2.221-1.409-3.42-3.522-4.169-4.97
							c-0.739-1.486-1.094-2.443-1.037-2.472c0.071-0.036,0.548,0.872,1.361,2.296c0.824,1.392,2.037,3.386,4.123,4.704
							c1.03,0.647,2.16,1.026,3.201,1.061c1.044,0.038,1.983-0.231,2.685-0.597C159.624,386.072,160.019,385.031,160.102,385.096z"
							/>
					</g>
				</g>
				<g>
					<g>
						<path style="fill:#455A64;" d="M161.438,377.136c0.03,0.05-0.587,0.509-1.723,1.002c-1.131,0.494-2.804,0.965-4.7,1.047
							c-1.897,0.075-3.604-0.257-4.771-0.656c-1.173-0.397-1.825-0.804-1.799-0.856c0.049-0.165,2.851,1.173,6.549,0.992
							C158.693,378.54,161.376,376.976,161.438,377.136z"/>
					</g>
				</g>
			</g>
			<g>
				<g>
					<path style="fill:#455A64;" d="M229.681,190.922h-30.573c0,0-4.153-2.392-6.163-1.99c-2.01,0.402-3.751,2.546-3.751,2.546
						l4.045,33.686l9.903-7.328l36.855-3.839c3.194-0.03,6.238-1.362,8.427-3.688l0,0c2.379-2.528,3.516-5.98,3.104-9.427
						l-6.818-36.227l-13.985,0.463l-0.552,9.194L229.681,190.922z"/>
				</g>
				<g>
					<path style="fill:#455A64;" d="M145.522,199.413c0,0-4.945,2.727-7.383,8.58c-1.783,4.279-13.957,25.653-20.375,36.837
						c-2.333,4.066-1.71,9.18,1.53,12.568l0,0c3.899,4.077,10.439,5.191,16.129,3.34c2.551-0.83,12.756-9.121,12.756-9.121
						L145.522,199.413z"/>
				</g>
				<g>
					<polygon style="fill:#455A64;" points="150.839,275.799 143.832,215.486 145.522,199.413 163.366,191.807 186.478,190.295 
						208.485,192.717 203.337,254.58 208.969,289.467 147.331,292.254 					"/>
				</g>
				<g>
					<g>
						<path style="fill:#263238;" d="M150.809,275.542c-0.143,0.017-1.821-13.415-3.747-29.997
							c-1.927-16.588-3.373-30.044-3.23-30.06c0.143-0.017,1.82,13.412,3.748,30C149.506,262.066,150.952,275.525,150.809,275.542z"
							/>
					</g>
				</g>
				<g>
					<g>
						<path style="fill:#263238;" d="M208.033,206.252c0.018,0.002,0.012,0.19-0.014,0.544c-0.037,0.412-0.083,0.924-0.139,1.549
							c-0.144,1.418-0.34,3.342-0.579,5.687c-0.489,4.87-1.151,11.47-1.883,18.763c-0.699,7.333-1.266,13.976-1.625,18.788
							c-0.169,2.35-0.308,4.279-0.411,5.7c-0.05,0.625-0.091,1.137-0.124,1.55c-0.034,0.354-0.061,0.54-0.079,0.539
							c-0.018-0.001-0.026-0.188-0.026-0.544c0.007-0.414,0.016-0.928,0.026-1.555c0.027-1.351,0.119-3.303,0.246-5.714
							c0.265-4.823,0.775-11.476,1.474-18.813c0.698-7.335,1.448-13.963,2.036-18.755c0.297-2.396,0.55-4.333,0.743-5.67
							c0.095-0.62,0.173-1.128,0.236-1.538C207.975,206.433,208.015,206.25,208.033,206.252z"/>
					</g>
				</g>
				<g>
					<g>
						<path style="fill:#263238;" d="M197.427,266.298c0.027,0.023-0.321,0.446-0.976,1.193c-0.321,0.38-0.73,0.83-1.252,1.306
							c-0.516,0.482-1.074,1.066-1.781,1.607c-0.684,0.569-1.442,1.183-2.318,1.759c-0.842,0.625-1.819,1.173-2.832,1.774
							c-2.069,1.123-4.447,2.177-7.05,2.972c-2.614,0.763-5.181,1.185-7.527,1.379c-1.177,0.052-2.294,0.13-3.342,0.068
							c-1.048-0.001-2.018-0.1-2.903-0.201c-0.888-0.065-1.675-0.248-2.37-0.368c-0.698-0.112-1.286-0.264-1.763-0.406
							c-0.957-0.266-1.48-0.428-1.47-0.463c0.028-0.116,2.133,0.542,5.641,0.87c0.877,0.077,1.837,0.153,2.872,0.135
							c1.035,0.042,2.137-0.051,3.297-0.115c2.313-0.218,4.839-0.649,7.416-1.4c2.566-0.784,4.914-1.809,6.968-2.894
							c1.005-0.582,1.978-1.108,2.82-1.711c0.876-0.553,1.637-1.143,2.328-1.688C195.939,267.922,197.34,266.217,197.427,266.298z"
							/>
					</g>
				</g>
				<g style="opacity:0.3;">
					<g>
						<path d="M164.84,277.558c-2.997-0.86-3.169-3.684-2.013-4.902c1.157-1.218,3.049-1.37,4.712-1.13
							c1.662,0.24,3.303,0.789,4.979,0.676c2.742-0.185,5.041-2.092,6.944-4.075c1.903-1.983,3.71-4.198,6.212-5.334
							c2.502-1.137,5.983-0.738,7.3,1.674c0.837,1.533,0.573,3.492-0.299,5.006c-0.871,1.514-2.267,2.654-3.711,3.636
							C181.996,277.847,173.008,279.619,164.84,277.558"/>
					</g>
				</g>
				<g style="opacity:0.2;">
					<g>
						<path d="M146.359,237.635c-0.538,0.757-5.745,7.873-5.745,7.873c-0.139,0.72-5.19,7.236-5.19,7.236s4.482-2.496,7.932-4.273
							c1.65-0.85,4.13-2.955,4.13-2.955s-0.777-4.898-1.119-6.722c-0.769-4.104-1.291-13.357-1.291-13.357"/>
					</g>
				</g>
				<g>
					<g>
						<path style="fill:#263238;" d="M201.294,192.152c0.023-0.128,2.307,0.801,4.01,3.191c1.731,2.371,1.893,4.83,1.764,4.812
							c-0.159,0.041-0.539-2.261-2.187-4.507C203.269,193.376,201.205,192.29,201.294,192.152z"/>
					</g>
				</g>
			</g>
		</g>
	</g>
	<g>
		<g>
			<path style="fill:#263238;" d="M146.358,237.635c0.059,0.042-0.52,0.969-1.507,2.434c-0.987,1.464-2.38,3.465-3.954,5.651
				c-3.144,4.363-5.835,7.851-6.03,7.652c0.474-0.687,0.953-1.38,1.614-2.336c1.12-1.577,2.485-3.497,3.993-5.62
				c1.573-2.185,3.014-4.151,4.077-5.561C145.615,238.446,146.3,237.593,146.358,237.635z"/>
		</g>
	</g>
</g>
</svg>
